<?xml version="1.0" encoding="utf-8"?>
<!-- Generator: Adobe Illustrator 16.0.0, SVG Export Plug-In . SVG Version: 6.00 Build 0)  -->
<!DOCTYPE svg PUBLIC "-//W3C//DTD SVG 1.1//EN" "http://www.w3.org/Graphics/SVG/1.1/DTD/svg11.dtd">
<svg version="1.1" id="Layer_1" xmlns="http://www.w3.org/2000/svg" xmlns:xlink="http://www.w3.org/1999/xlink" x="0px" y="0px"
	 width="150px" height="150px" viewBox="0 0 150 150" enable-background="new 0 0 150 150" xml:space="preserve">
<g>
	<path fill-rule="evenodd" clip-rule="evenodd" fill="#F05A27" d="M89.33,23.775c-3.448,19.347,0.302,40.434,10.483,56.54
		c5.952,9.417,10.056,19.141,10.291,30.366c1.309,10.356-2.693,18.421-10.602,24.757c-1.877,1.503-4.03,2.615-6.024,3.958
		c1.201-1.492,2.48-2.96,1.478-5.099c0.739-1.74,1.477-3.479,2.215-5.218c0.083-0.167,0.262-0.461,0.236-0.48
		c-8.946-6.772-17.478-14.085-26.565-20.668c-1.801-1.305-3.881-2.411-6.046-0.462c-0.901,2.019-1.661,4.109-1.882,6.303
		c-0.668,6.606-3.389,12.366-6.952,17.81c0.805,4.479-0.643,7.505-5.318,8.54c-0.491,0.108-0.824,0.708-1.149,1.144
		c-1.867,3.673-2.04,6.686,2.953,7.699c4.27-0.18,8.552-0.193,12.805-0.574c12.306-1.102,24.454-3.252,36.873-3.967
		c18.429-1.061,32.514-10.699,41.147-27.594c0.416-1.793-0.326-3.336-1.174-4.779c-16.622-28.314-32.601-57.005-49.199-85.333
		L89.33,23.775z"/>
	<path fill-rule="evenodd" clip-rule="evenodd" fill="#FCDAC4" d="M19.795,113.198c1.704-12.482-2.465-24.52-11.702-32.974
		c-0.46-0.328-1.296-2.222-1.927-3.354c0.008-3.944-2.29-7.465-1.908-11.523c0.996-10.57,10.938-21.135,21.415-22.335
		c2.244-0.256,4.391-0.812,6.582-1.244c2.55-0.076,5.102-0.108,7.657-0.136c3.905,1.087,7.714,0.169,11.531-0.562
		c2.169-0.415,4.373-1.164,6.304,0.674c-3.514,5.313-9.315,6.226-14.777,7.774c-1.761,0.499-3.553,0.891-5.33,1.332
		c-3.11,3.585-7.95,3.956-11.687,6.375c-0.472,0.306-0.985,0.537-1.477,0.806c0.426-0.231,0.892-0.403,1.278-0.688
		c1.904-1.408,4.094-1.692,6.366-1.763c3.589-0.112,6.158,1.236,7.202,4.906c0.333,1.186,0.285,2.352-0.128,3.506
		c-1.891,4.254,0.478,8.766-0.769,13.057c0.662,4.111-1.039,8.444,1.2,12.4c0.212,5.985,1.159,12.001-0.6,17.921
		c-1.022,1.813-2.702,2.127-4.288,1.249c-5.042-2.792-9.92-5.846-12.783-11.194c-0.196-0.365-0.403-0.724-0.701-1.019
		c0.257,0.269,0.435,0.594,0.63,0.915c1.24,2.052,1.228,4.254,0.813,6.515C22.582,107.228,19.698,113.717,19.795,113.198z"/>
	<path fill-rule="evenodd" clip-rule="evenodd" fill="#F05A27" d="M37.393,108.141c0.017-6.132,0.034-12.266,0.051-18.399
		c-0.416-1.063-0.363-2.18-0.423-3.293c-0.203-3.743,1.729-3.821,3.991-2.066c8.154,6.328,16.853,11.982,24.094,19.464
		c-1.079,8.336-2.825,16.479-7.019,23.892c-4.006,3.507-4.165,9.473-8.152,12.996c-1.952,3.977-4.105,7.731-9.091,8.359
		c-4.058,0.833-8.114,1.564-12.159-0.064c-3.384-1.672-3.073-4.178-1.56-6.956c4.405-3.405,7.649-7.508,7.853-13.422
		c1.105-2.26,0.046-4.477-0.136-6.715C35.203,117.242,33.381,112.144,37.393,108.141z"/>
	<path fill-rule="evenodd" clip-rule="evenodd" fill="#F37425" d="M143.272,116.828c-8.793-11.256-14.714-24.274-21.961-36.476
		c-10.029-16.886-19.688-33.995-29.459-51.035c-1.004-1.751-1.689-3.69-2.522-5.542c0.9-4.6,2.835-8.717,5.719-12.389
		c3.458,0.213,3.962,3.395,5.187,5.602c1.227,2.212,2.329,4.492,3.809,6.558c4.12,15.809,13.31,28.757,23.131,41.316
		c4.892,6.255,8.851,12.952,10.833,20.714c1.28,5.015,4.4,9.042,6.87,13.43c1.145,2.031,3.253,3.681,2.839,6.426
		C146.25,109.237,146.145,113.58,143.272,116.828z"/>
	<path fill-rule="evenodd" clip-rule="evenodd" fill="#F89D2D" d="M102.778,2.309c1.852-2.314,3.498-4.053,4.247,0.736
		c2.121,13.555,8.509,25.173,16.379,36.094c6.035,8.376,12.43,16.511,18.053,25.158c7.191,11.064,10.532,23.186,7.32,36.5
		c-3.192-4.975-5.813-10.28-8.799-15.378c-11.147-19.02-22.114-38.147-33.241-57.18c-1.868-3.198-3.342-6.631-5.654-9.574
		C99.381,12.974,100.976,7.629,102.778,2.309z"/>
	<path fill-rule="evenodd" clip-rule="evenodd" fill="#F05A27" d="M31.968,44.064c-2.925,0.541-5.899,0.892-8.765,1.655
		C12.257,48.636,4.999,60.183,6.458,71.888c0.199,1.598,2.161,3.487-0.292,4.983C-4.325,55.879-1.239,32.634,13.975,18.04
		c1.629-0.67,3.083-0.051,3.944,1.182C23.382,27.046,28.347,35.175,31.968,44.064z"/>
	<path fill-rule="evenodd" clip-rule="evenodd" fill="#F79927" d="M37.58,63.3c0.096-1.169,0.191-2.34,0.286-3.509
		c0.327-0.842,0.764-1.541,1.828-1.419c6.185,6.972,13.563,12.232,21.94,16.282c9.286,4.49,17.926,10.105,25.749,16.891
		c6.23,5.403,11.009,11.744,11.874,20.36c-3.003,4.272-5.695,1.041-7.972-0.664c-9.29-6.956-18.29-14.296-27.387-21.508
		c-7.19-5.698-14.348-11.441-21.629-17.02C39.062,70.257,36.994,67.528,37.58,63.3z"/>
	<path fill-rule="evenodd" clip-rule="evenodd" fill="#F48223" d="M37.58,63.3c2.561,7.276,9.501,10.05,14.839,14.377
		c13.707,11.113,27.667,21.908,41.482,32.885c1.659,1.318,3.088,2.819,5.354,1.342c1.349,4.73,0.913,9.341-0.917,13.858
		c-2.201-0.24-3.61-1.858-5.204-3.11c-17.491-13.73-34.801-27.694-52.398-41.287c-1.667-1.289-2.912-2.873-4.145-4.517
		C36.606,72.311,35.505,67.688,37.58,63.3z"/>
	<path fill-rule="evenodd" clip-rule="evenodd" fill="#F05A27" d="M36.536,123.18c1.449,1.865,1.402,3.75,0.07,5.648
		c-0.565-0.386-1.19-1.106-1.466,0.244c-1.088,5.324-4.252,9.371-7.937,13.102c-2.377,4.383-6.505,5.345-10.947,5.697
		c-2.837-0.452-6.79,0.238-7.159-3.744c-0.358-3.856,2.278-6.175,6.281-6.37c2.284-0.112,1.913-1.91,2.125-3.284
		c1.083-7.056,2.324-14.096,2.292-21.274c1.329-3.336,1.106-10.321,1.106-10.321c5.445-0.156,12.271,6.188,13.906,12.811
		C35.423,118.178,35.079,120.891,36.536,123.18z"/>
	<path fill-rule="evenodd" clip-rule="evenodd" fill="#F58B28" d="M102.677,19.181c3.762,2.301,5.015,6.479,7.084,9.964
		c12.639,21.291,25.063,42.709,37.689,64.008c1.497,2.522,0.894,5.102,1.326,7.644c0.013,1.63,0.02,3.259-1.058,4.635
		c-5.332-4.2-9.323-10.116-10.743-16.125c-3.004-12.721-11.132-21.866-18.182-31.958c-7.175-10.27-14.68-20.5-16.138-33.607
		C101.759,22.217,101.204,20.695,102.677,19.181z"/>
	<path fill-rule="evenodd" clip-rule="evenodd" fill="#F26D26" d="M36.591,76.85c7.559,2.719,12.917,8.682,19.075,13.394
		c13.163,10.072,25.981,20.601,38.978,30.895c1.616,1.28,3.486,2.248,3.694,4.625c-0.022,1.236-0.143,2.437-1.167,3.315
		c-5.777-0.127-8.564-5.173-12.708-7.951c-6.454-4.325-11.731-10.302-18.819-13.768c-1.43-0.771-0.444-2.37-1.148-3.389
		c-8.183-3.194-13.678-10.213-20.834-14.869c-0.622-0.404-1.072-1.154-1.73-1.413c-1.499-0.589-2.376-2.901-3.971-2.222
		c-0.652,0.278-0.373,2.78-0.517,4.272C36.119,85.515,36.523,81.171,36.591,76.85z"/>
	<path fill-rule="evenodd" clip-rule="evenodd" fill="#F37425" d="M31.968,44.064c-5.604-3.154-6.427-9.66-9.859-14.345
		c-2.8-3.823-3.954-8.816-8.135-11.679c1.167-1.164,2.266-2.407,3.511-3.477c6.538-5.62,6.551-5.605,11.061,1.194
		c3.974,1.76,4.986,5.698,6.638,9.166c0.82,2.254,3.241,2.837,4.629,4.499c1.425,2.353,3.343,4.369,4.379,7
		c2.136,5.417,1.507,6.591-4.28,7.43C37.265,43.922,34.617,43.994,31.968,44.064z"/>
	<path fill-rule="evenodd" clip-rule="evenodd" fill="#F58924" d="M39.913,43.85c3.582-0.916,4.812-2.603,2.454-6.125
		c-1.628-2.432-2.86-5.178-2.553-8.305c4.925,2.068,9.945,3.783,15.203,4.854c6.214,1.265,6.265,1.595,2.73,7.472
		C52.011,44.246,45.991,44.298,39.913,43.85z"/>
	<path fill-rule="evenodd" clip-rule="evenodd" fill="#C8542B" d="M110.104,110.681c3.826,8.525,0.258,15.781-4.547,22.296
		c-3.723,5.048-9.533,7.73-15.363,9.933c-0.603,0.227-1.374,0.004-2.068-0.01c0.382-0.566,0.725-1.165,1.152-1.693
		c1.88-2.316,3.783-4.61,5.679-6.912C105.036,129.698,108.635,120.883,110.104,110.681z"/>
	<path fill-rule="evenodd" clip-rule="evenodd" fill="#F58925" d="M102.677,19.181c-0.008,1.521-0.014,3.041-0.022,4.561
		c-3.691-3.396-5.369-8.051-7.606-12.355c2.086-3.144,4.81-6.213,7.729-9.077C105.079,7.947,101.459,13.549,102.677,19.181z"/>
	<path fill-rule="evenodd" clip-rule="evenodd" fill="#CFB4A3" d="M39.693,58.372c-0.61,0.476-1.221,0.951-1.83,1.422
		c-4.082-3.525-9.986-2.87-15.873,1.628c-1.163,0.888-2.375,3.465-3.781,1.853c-1.02-1.17,1.343-2.745,2.509-3.792
		c4.868-4.368,10.005-8.297,16.92-8.631C37.111,53.696,37.76,56.212,39.693,58.372z"/>
	<path fill-rule="evenodd" clip-rule="evenodd" fill="#C85831" d="M35.185,24.922c-3.11-2.396-5.873-5.047-6.637-9.167
		c1.603-1.165,3.177-3.036,5.318-1.958c1.961,0.987,1.232,3.28,1.331,5.05C35.309,20.866,35.198,22.896,35.185,24.922z"/>
	<path fill-rule="evenodd" clip-rule="evenodd" fill="#CCC7C5" d="M40.844,149.093c3.643-2.064,5.35-5.859,7.871-8.926
		c1.077-0.039,2.095,0.052,2.636,1.203c-1.815,2.849-2.642,5.556,1.096,7.593C48.58,149.006,44.712,149.05,40.844,149.093z"/>
	<path fill-rule="evenodd" clip-rule="evenodd" fill="#D0CAC7" d="M16.256,147.871c4.217-0.823,7.128-3.699,10.082-6.508
		c0.938-0.095,1.774,0.052,2.28,0.979c-0.929,2.24-1.827,4.479,0.068,6.688C24.542,148.643,20.399,148.257,16.256,147.871z"/>
	<path fill-rule="evenodd" clip-rule="evenodd" fill="#C8542B" d="M64.496,103.971c1.095,0.884,1.1,2.144,1.148,3.389
		c-1.204,8.873-1.209,18.165-8.559,24.896c-2.035-1.337-1.486-2.96-0.506-4.632C59.218,119.74,61.857,111.855,64.496,103.971z"/>
	<path fill-rule="evenodd" clip-rule="evenodd" fill="#FCF4F0" d="M56.579,127.624c0.169,1.544,0.337,3.087,0.506,4.632
		c4.9,7.387-0.396,8.265-5.734,9.115c-0.878-0.402-1.756-0.804-2.635-1.204C51.347,135.993,52.38,130.801,56.579,127.624z"/>
	<path fill-rule="evenodd" clip-rule="evenodd" fill="#C7542C" d="M36.536,123.18c-2.405-0.585-1.868-2.897-2.381-4.446
		c-2.35-7.09-6.758-12.332-13.253-15.856c0.054-2.219,0.108-4.438,0.162-6.657c2.497,0.112,3.511,2.414,5.239,3.651
		c3.749,2.683,6.793,6.326,11.091,8.269C37.107,113.154,36.821,118.167,36.536,123.18z"/>
	<path fill-rule="evenodd" clip-rule="evenodd" fill="#FDF4F0" d="M28.618,142.341c-0.759-0.326-1.519-0.653-2.279-0.979
		c3.228-4.167,5.433-8.934,7.896-13.554c0.409-0.768,0.597-2.389,1.975-1.637c0.471,0.257,0.283,1.737,0.396,2.657
		c-0.083,0.546-0.254,1.095-0.237,1.638C36.553,136.266,34.517,140.579,28.618,142.341z"/>
	<path fill-rule="evenodd" clip-rule="evenodd" fill="#FDF1E9" d="M30.969,33.997c-1.284,0.075-2.229-0.498-2.438-1.755
		c-0.245-1.469,0.391-2.629,1.979-2.761c1.524-0.125,2.456,0.755,2.496,2.311C33.039,33.103,32.206,33.783,30.969,33.997z"/>
</g>
</svg>
