<?xml version="1.0" encoding="utf-8"?>
<!-- Generator: Adobe Illustrator 16.0.0, SVG Export Plug-In . SVG Version: 6.00 Build 0)  -->
<!DOCTYPE svg PUBLIC "-//W3C//DTD SVG 1.1//EN" "http://www.w3.org/Graphics/SVG/1.1/DTD/svg11.dtd">
<svg version="1.1" id="Layer_1" xmlns="http://www.w3.org/2000/svg" xmlns:xlink="http://www.w3.org/1999/xlink" x="0px" y="0px"
	 width="1920px" height="30px" viewBox="0 0 1920 30" enable-background="new 0 0 1920 30" xml:space="preserve">
<path fill="#000" fill-rule="evenodd" clip-rule="evenodd" d="M1919.259,26.61c-0.42,0.58-0.883,1.221-1.348,1.868
	c-0.022-0.03-0.047-0.059-0.071-0.087c0.123-1.083,0.245-2.17,0.367-3.255c-0.065-0.03,0.145-0.061,0.08-0.093
	c-0.533,0.447-1.287,0.889-1.287,1.308c0-0.993,0-1.979,0-3.114c-1,1.017-1.814,1.905-2.531,2.794
	c0.02-0.762,0.033-1.457,0.129-2.165c0.097-0.707,0.082-1.421,0.134-2.133c0.048-0.685,0.035-1.365,0.069-2.045
	c-1.481,2.684-2.816,4.271-3.959,4.647c0.642-2.164,1.277-4.336,1.926-6.516c-0.057-0.026-0.118-0.053-0.175-0.079
	c-1.806,1.277-3.163,2.962-4.252,4.884c-0.085-0.02-0.169-0.039-0.253-0.059c-0.238-3.604-0.48-7.213-0.701-10.527
	c-0.623,4.197-2.147,8.38-4.733,12.167c-0.747-4.004,1.032-7.314,3.052-10.722c-2.942,1.559-4.901,3.793-6.305,6.573
	c0.803-3.664,1.604-7.332,2.405-10.997c-0.06-0.021-0.118-0.043-0.178-0.064c-0.762,1.399-1.524,2.795-2.288,4.195
	c0.023-2.322-0.166-4.575-0.878-6.774c0.219,2.744-0.021,5.441-0.75,8.089c-0.73,2.663-1.886,5.118-3.62,7.301
	c0.459-6.274,1.696-12.386,3.467-18.417c-1.958,1.442-3.487,3.223-4.702,5.267c-1.209,2.041-1.993,4.24-2.579,6.541
	c0.142-3.515,0.282-7.022,0.424-10.53c-0.023-0.004-0.047-0.006-0.071-0.011c-1.11,5.378-2.222,10.753-3.333,16.137
	c-0.051-0.005-0.104-0.01-0.154-0.014c-0.555-4.531-1.515-8.961-2.998-13.288c-0.154,2.699-0.243,5.363-0.478,8.013
	c-0.239,2.675-0.738,5.319-1.576,7.895c-0.308-5.674-0.617-11.349-0.926-17.022c-0.579,7.131-4.047,13.121-7.658,19.062
	c-0.284-8.035,1.584-15.55,5.448-22.603c-1.473,1.816-2.894,3.644-4.271,5.505c-2.482,3.354-5.359,6.479-6.558,10.627
	c0.443-4.813,1.954-9.287,4.375-13.471c-1.612,1.354-2.924,2.937-4.021,4.696c-1.102,1.765-1.921,3.655-2.604,5.633
	c0.039-4.614-0.353-9.162-1.513-13.629c-0.076,6.641-0.962,13.155-2.757,19.584c0.054-3.115,0.154-6.184,0.148-9.249
	c-0.004-2.406-0.549-7.619-1.053-9.117c0.43,6.687-0.697,13.074-3.494,19.257c-0.427-0.397-0.915-0.539-0.911-1.166
	c0.023-3.398-0.245-6.785-0.825-10.133c-0.316-1.834-0.718-3.659-1.08-5.484c-0.058,0.003-0.113,0.008-0.169,0.012
	c1.014,7.132-1.303,13.645-3.693,20.297c0.377-5.812,0.744-11.467,1.109-17.122c-0.086-0.014-0.172-0.027-0.258-0.04
	c-0.521,1.739-1.076,3.472-1.561,5.229c-0.479,1.732-0.914,3.48-1.323,5.229c-0.404,1.738-0.753,3.487-1.127,5.237
	c-0.218-8.029-2.717-15.488-5.373-22.915c1.605,7.107,1.317,14.111-1.105,20.999c-0.312-5.346,0.159-10.625,1.249-15.871
	c-2.591,4.046-4.621,8.346-6.348,12.823c0.167-2.28,0.366-4.531,0.741-6.759c0.374-2.221,0.922-4.405,1.432-6.785
	c-1.605,2.384-2.81,4.763-3.767,7.271c-0.959,2.519-1.589,5.114-2.036,7.77c-0.063-3.662-0.367-7.29-1.059-10.878
	c-0.687-3.568-1.679-7.043-3.126-10.385c0.896,3.566,0.836,7.136,0.148,10.715c-0.665,3.445-2.545,9.364-3.254,10.242
	c0.534-4.967,0.838-9.933,0.762-14.928c-2.132,4.453-3.592,9.112-4.636,13.916c-0.243-3.521,0.225-6.952,1.118-10.354
	c-2.669,3.193-4.396,6.823-5.283,10.86c-0.06-0.012-0.12-0.021-0.18-0.034c0.412-3.682,0.826-7.364,1.244-11.097
	c-1.618,3.935-2.622,7.978-3.268,12.159c-0.256-0.72-0.459-1.447-0.528-2.183c-0.438-4.595-1.448-9.06-3.037-13.398
	c-0.531-1.441-1.142-2.86-1.717-4.284c-0.063,0.015-0.124,0.029-0.188,0.042c1.422,6.469,1.358,12.896-0.319,19.285
	c-0.057,0-0.114,0.003-0.17,0.003c-0.683-4.321-1.364-8.638-2.047-12.959c-0.119,5.577-1.26,10.904-3.803,15.916
	c0.307-3.625,0.61-7.248,0.915-10.873c-2.334,3.154-3.715,6.667-4.541,10.422c0.223-4.678-0.104-9.301-0.97-13.883
	c-0.056-0.002-0.109-0.002-0.166-0.003c-0.905,4.387-1.812,8.773-2.716,13.166c-0.045-0.007-0.091-0.014-0.136-0.021
	c-0.942-4.787-1.886-9.575-2.83-14.363c-0.453,5.324-0.73,10.647-1.737,15.906c-0.832-2.26-1.401-4.579-1.646-6.962
	c-0.246-2.384-0.35-4.788-0.511-7.106c-0.966,3.166-2.146,6.411-3.138,9.662c-0.054-0.008-0.347-0.015-0.347-0.022
	c0-0.22,0-0.44,0-0.66c0-5.874,1.096-11.62,2.65-17.283c-3.824,5.582-6.377,11.675-7.967,18.234
	c-0.051-0.015-0.054-0.028-0.104-0.042c0.376-3.398,0.774-6.797,1.15-10.202c-1.97,4.282-3.275,8.752-4.242,13.344
	c0.229-3.124,0.069-6.213-0.425-9.297c-0.493-3.08-1.332-6.053-2.63-8.909c0.185,5.949-0.672,11.714-2.754,17.458
	c-1.139-2.993-1.455-5.907-1.092-8.906c-0.074-0.019-0.147-0.036-0.219-0.055c-0.853,2.463-1.704,4.916-2.601,7.498
	c0.188-5.998,1.563-11.595,3.984-16.967c-1.629,1.609-2.842,3.48-3.809,5.518c-1.405,2.957-2.24,6.101-2.931,9.288
	c-0.098,0.446-0.182,0.903-0.281,1.351c-0.094,0.424,0.157,0.84,0.059,1.262c-0.047-0.006,0.209-0.012,0.209-0.019
	c0-2.238,0-4.469,0-6.707c0-0.004-0.48-0.009-0.544-0.013c-0.231,2.596-0.94,5.107-2.237,7.402c0.168-4.897-0.4-9.703-1.682-14.432
	c-0.686,5.222-2.07,10.233-4.493,14.935c0.02-4.282,0.528-8.495,1.237-12.729c-0.311,0.258-0.618,0.526-0.778,0.855
	c-0.28,0.582-0.541,1.184-0.697,1.802c-0.684,2.713-1.328,5.43-1.989,8.143c-0.137,0.55-0.288,1.104-0.432,1.653
	c-0.039-0.007-0.083-0.015-0.125-0.021c-0.759-3.957-1.521-7.914-2.279-11.863c-0.054,2.485-0.265,4.937-0.81,7.356
	c-0.538,2.392-1.323,4.703-2.55,6.851c-0.313-4.021,0.175-7.942,1.31-11.794c-0.065-0.018-0.132-0.038-0.198-0.059
	c-0.854,2.055-1.709,4.107-2.635,6.327c0.113-3.237-0.113-6.282-0.65-9.307c-0.573-3.213-1.988-7.897-2.685-8.73
	c1.196,6.771,0.926,13.429-1.047,19.997c0.104-2.934,0.209-5.864,0.313-8.799c-1.641,2.507-2.842,5.209-3.956,7.946
	c0.469-2.879,0.938-5.757,1.408-8.635c-0.063-0.015-0.126-0.027-0.189-0.041c-1.854,3.401-3.038,7.029-3.74,10.835
	c-0.195-3.932-1.546-7.523-3.088-11.065c-0.004,4.758-0.062,9.494-0.506,14.224c-2.438-4.074-2.009-8.503-1.686-12.939
	c-1.15,1.263-2.537,5.301-3.555,10.247c-0.027-0.895-0.054-1.785-0.021-2.675c0.217-6.3,1.264-12.466,3.205-18.478
	c-4.465,5.883-6.734,12.526-7.061,19.857c-0.468-4.051-1.507-7.952-2.703-11.825c-0.002,1.138,0.076,2.266,0.115,3.392
	c0.039,1.132,0.064,2.258,0.041,3.39s-0.08,2.265-0.187,3.392c-0.105,1.119-0.262,2.242-0.454,3.358
	c-0.186,1.077-0.445,2.14-0.673,3.208c-0.051-0.004-0.104-0.009-0.153-0.013c0.257-4.156-1.121-7.94-2.598-11.704
	c0.008,3.64-0.263,7.239-1.085,10.793c-1.748-6.258-0.888-12.526-0.142-18.82c-1.77,2.478-3.337,5.047-4.578,7.81
	c-1.249,2.783-2.138,5.664-2.475,8.705c-0.197-6.243,0.695-12.347,2.479-18.356c-0.236,0.134-0.424,0.292-0.586,0.471
	c-1.305,1.399-2.09,3.1-2.733,4.867c-1.451,3.999-2.49,8.104-3.306,12.279c0.043-1.289,0.15-2.566,0.19-3.851
	c0.04-1.296,0.05-2.586,0.008-3.881c-0.044-1.317-0.13-2.629-0.27-3.938c-0.136-1.282-0.327-2.563-0.56-3.835
	c-0.226-1.229-0.536-2.436-0.811-3.657c1.043,7.47-0.397,14.358-4.586,20.663c0.118-1.319,0.298-2.634,0.583-3.927
	c0.293-1.324,0.646-2.645,1.051-3.938c0.386-1.248,0.87-2.467,1.312-3.696c-2.618,3.431-4.346,7.269-5.445,11.384
	c0.107-2.713,0.211-5.429,0.317-8.142c-0.04-0.001-0.081-0.003-0.122-0.005c-0.723,2.728-1.445,5.454-2.17,8.18
	c-0.069-0.013-0.138-0.027-0.207-0.042c1.169-7.417,0.225-14.537-2.98-21.343c-0.053,0.096-0.053,0.187-0.025,0.27
	c1.896,5.511,1.51,10.89-0.932,16.164c-0.842,1.817-1.643,3.655-1.855,5.692c-0.881-2.309-1.151-4.698-1.078-7.149
	c-0.071-0.009-0.143-0.018-0.214-0.026c-0.332,1.469-0.667,2.931-1.009,4.435c-0.4-5.917,0.25-11.708,1.623-17.441
	c-3.801,6.237-4.872,13.213-5.577,20.302c-0.663-1.851-1.011-3.751-1.187-5.668c-0.174-1.905-0.249-3.822-0.297-5.737
	c-0.049-1.905-0.012-3.813-0.012-5.599c-0.844,4.038-1.249,8.259-1.444,12.508c-0.315-2.666-1.059-5.181-2.34-7.456
	c0.384,2.17,0.824,4.381,1.158,6.608c0.259,1.736,0.289,3.873,0.157,5.297c-0.159,0.198-0.313,0.389-0.469,0.582
	c-0.097-0.454-0.214-0.903-0.352-1.347c0.003-0.021,0.008-0.044,0.011-0.066c0.097-0.707,0.151-1.421,0.203-2.133
	c0.05-0.685,0.071-1.365,0.104-2.045c-0.419,0.762-0.825,1.425-1.219,2.009c-0.121-0.241-0.233-0.483-0.37-0.725
	c-0.037,0.496-0.072,0.952-0.106,1.393c-0.103,0.137-0.204,0.267-0.305,0.389c-0.026-0.332-0.05-0.666-0.079-0.997
	c-0.073-0.817-0.187-1.621-0.383-2.403c0.152-0.512,0.303-1.021,0.455-1.533c-0.058-0.026-0.115-0.053-0.172-0.079
	c-0.225,0.158-0.421,0.341-0.631,0.512c-0.148-0.387-0.324-0.767-0.536-1.137c-0.448-0.786-1.017-1.453-1.912-1.959
	c0.366,1.673,0.557,3.313,0.552,4.961c-0.299,0.361-0.587,0.73-0.854,1.12c-0.361-2.529-0.719-5.026-1.073-7.505
	c-0.07-0.002-0.141-0.004-0.209-0.005c-0.109,0.474-0.219,0.949-0.328,1.424c-0.07-1.058-0.14-2.103-0.207-3.113
	c-0.47,3.164-1.453,6.317-3.014,9.301c-0.41-0.869-0.897-1.556-1.447-2.026c0.574-2.007,1.64-3.902,2.78-5.829
	c-2.944,1.559-4.901,3.793-6.306,6.573c0.801-3.664,1.604-7.332,2.404-10.997c-0.06-0.021-0.117-0.043-0.176-0.064
	c-0.764,1.399-1.526,2.795-2.288,4.195c0.021-2.322-0.17-4.575-0.878-6.774c0.219,2.744-0.022,5.441-0.751,8.089
	c-0.731,2.663-1.885,5.118-3.62,7.301c0.459-6.274,1.697-12.386,3.465-18.417c-1.956,1.442-3.484,3.223-4.701,5.267
	c-1.208,2.041-1.993,4.24-2.578,6.541c0.143-3.515,0.281-7.022,0.423-10.53c-0.022-0.004-0.049-0.006-0.072-0.011
	c-1.109,5.378-2.221,10.753-3.33,16.137c-0.052-0.005-0.104-0.01-0.155-0.014c-0.556-4.531-1.517-8.961-2.999-13.288
	c-0.156,2.699-0.242,5.363-0.478,8.013c-0.237,2.675-0.737,5.319-1.576,7.895c-0.307-5.674-0.615-11.349-0.924-17.022
	c-0.581,7.131-4.049,13.121-7.659,19.062c-0.285-8.035,1.582-15.55,5.447-22.603c-1.473,1.816-2.894,3.644-4.27,5.505
	c-2.484,3.354-5.361,6.479-6.558,10.627c0.441-4.813,1.952-9.287,4.372-13.471c-1.611,1.354-2.923,2.937-4.02,4.696
	c-1.103,1.765-1.922,3.655-2.605,5.633c0.039-4.614-0.351-9.162-1.511-13.629c-0.077,6.641-0.962,13.155-2.758,19.584
	c0.056-3.115,0.155-6.184,0.148-9.249c-0.004-2.406-0.548-7.619-1.051-9.117c0.427,6.687-0.7,13.074-3.495,19.257
	c-0.428-0.397-0.915-0.539-0.911-1.166c0.021-3.398-0.246-6.785-0.825-10.133c-0.318-1.834-0.717-3.659-1.08-5.484
	c-0.057,0.003-0.113,0.008-0.17,0.012c1.012,7.132-1.304,13.645-3.693,20.297c0.377-5.812,0.743-11.467,1.109-17.122
	c-0.087-0.014-0.171-0.027-0.258-0.04c-0.521,1.739-1.076,3.472-1.56,5.229c-0.479,1.732-0.913,3.48-1.323,5.229
	c-0.403,1.738-0.754,3.487-1.126,5.237c-0.219-8.029-2.721-15.488-5.375-22.915c1.604,7.107,1.318,14.111-1.104,20.999
	c-0.313-5.346,0.157-10.625,1.249-15.871c-2.592,4.046-4.622,8.346-6.349,12.823c0.165-2.28,0.365-4.531,0.741-6.759
	c0.374-2.221,0.922-4.405,1.431-6.785c-1.604,2.384-2.809,4.763-3.767,7.271c-0.959,2.519-1.588,5.114-2.038,7.77
	c-0.063-3.662-0.363-7.29-1.057-10.878c-0.688-3.568-1.679-7.043-3.124-10.385c0.896,3.566,0.835,7.136,0.147,10.715
	c-0.663,3.445-2.546,9.364-3.253,10.242c0.53-4.967,0.837-9.933,0.759-14.928c-2.131,4.453-3.59,9.112-4.633,13.916
	c-0.246-3.521,0.224-6.952,1.117-10.354c-2.67,3.193-4.397,6.823-5.285,10.86c-0.06-0.012-0.118-0.021-0.179-0.034
	c0.413-3.682,0.827-7.364,1.245-11.097c-1.618,3.935-2.621,7.978-3.269,12.159c-0.255-0.72-0.46-1.447-0.529-2.183
	c-0.435-4.595-1.447-9.06-3.038-13.398c-0.527-1.441-1.139-2.86-1.714-4.284c-0.063,0.015-0.124,0.029-0.188,0.042
	c1.423,6.469,1.358,12.896-0.32,19.285c-0.056,0-0.111,0.003-0.169,0.003c-0.682-4.321-1.364-8.638-2.047-12.959
	c-0.123,5.577-1.262,10.904-3.801,15.916c0.305-3.625,0.608-7.248,0.914-10.873c-2.337,3.154-3.715,6.667-4.541,10.422
	c0.22-4.678-0.104-9.301-0.971-13.883c-0.055-0.002-0.11-0.002-0.166-0.003c-0.905,4.387-1.81,8.773-2.717,13.166
	c-0.044-0.007-0.089-0.014-0.134-0.021c-0.943-4.787-1.888-9.575-2.83-14.363c-0.455,5.324-0.731,10.647-1.739,15.906
	c-0.831-2.26-1.402-4.579-1.647-6.962c-0.245-2.384-0.347-4.788-0.508-7.106c-0.967,3.166-2.052,6.411-3.045,9.662
	c-0.054-0.008-0.255-0.015-0.255-0.022c0-0.22,0-0.44,0-0.66c0-5.874,1.002-11.62,2.561-17.283
	c-3.826,5.582-6.427,11.675-8.017,18.234c-0.051-0.015-0.077-0.028-0.128-0.042c0.377-3.398,0.764-6.797,1.141-10.202
	c-1.971,4.282-3.281,8.752-4.249,13.344c0.23-3.124,0.066-6.213-0.427-9.297c-0.494-3.08-1.334-6.053-2.632-8.909
	c0.185,5.949-0.675,11.714-2.756,17.458c-1.139-2.993-1.454-5.907-1.093-8.906c-0.072-0.019-0.145-0.036-0.217-0.055
	c-0.853,2.463-1.705,4.916-2.601,7.498c0.187-5.998,1.565-11.595,3.982-16.967c-1.628,1.609-2.844,3.48-3.808,5.518
	c-1.404,2.957-2.239,6.101-2.93,9.288c-0.098,0.446-0.184,0.903-0.281,1.351c-0.093,0.424-0.249,0.84-0.349,1.262
	c-0.048-0.006-0.198-0.012-0.198-0.019c0-2.238,0-4.469,0-6.707c0-0.004-0.076-0.009-0.138-0.013
	c-0.229,2.596-0.737,5.107-2.034,7.402c0.166-4.897-0.297-9.703-1.579-14.432c-0.685,5.222-2.02,10.233-4.441,14.935
	c0.02-4.282,0.552-8.495,1.263-12.729c-0.309,0.258-0.607,0.526-0.769,0.855c-0.277,0.582-0.53,1.184-0.688,1.802
	c-0.682,2.713-1.327,5.43-1.987,8.143c-0.135,0.55-0.285,1.104-0.429,1.653c-0.042-0.007-0.083-0.015-0.122-0.021
	c-0.762-3.957-1.521-7.914-2.282-11.863c-0.053,2.485-0.265,4.937-0.807,7.356c-0.539,2.392-1.325,4.703-2.551,6.851
	c-0.313-4.021,0.173-7.942,1.309-11.794c-0.065-0.018-0.133-0.038-0.198-0.059c-0.854,2.055-1.709,4.107-2.636,6.327
	c0.114-3.237-0.112-6.282-0.649-9.307c-0.573-3.213-1.987-7.897-2.684-8.73c1.194,6.771,0.926,13.429-1.047,19.997
	c0.103-2.934,0.207-5.864,0.311-8.799c-1.639,2.507-2.843,5.209-3.954,7.946c0.47-2.879,0.939-5.757,1.407-8.635
	c-0.063-0.015-0.127-0.027-0.19-0.041c-1.853,3.401-3.036,7.029-3.737,10.835c-0.198-3.932-1.546-7.523-3.089-11.065
	c-0.006,4.758-0.061,9.494-0.506,14.224c-2.438-4.074-2.009-8.503-1.686-12.939c-1.151,1.263-2.539,5.301-3.556,10.247
	c-0.027-0.895-0.053-1.785-0.022-2.675c0.218-6.3,1.266-12.466,3.205-18.478c-4.463,5.883-6.734,12.526-7.06,19.857
	c-0.464-4.051-1.505-7.952-2.702-11.825c-0.004,1.138,0.074,2.266,0.113,3.392c0.039,1.132,0.064,2.258,0.042,3.39
	c-0.024,1.132-0.081,2.265-0.187,3.392c-0.107,1.119-0.26,2.242-0.452,3.358c-0.187,1.077-0.447,2.14-0.674,3.208
	c-0.053-0.004-0.103-0.009-0.155-0.013c0.257-4.156-1.119-7.94-2.596-11.704c0.006,3.64-0.263,7.239-1.086,10.793
	c-1.748-6.258-0.888-12.526-0.141-18.82c-1.77,2.478-3.338,5.047-4.58,7.81c-1.247,2.783-2.137,5.664-2.472,8.705
	c-0.198-6.243,0.691-12.347,2.477-18.356c-0.236,0.134-0.42,0.292-0.585,0.471c-1.307,1.399-2.092,3.1-2.732,4.867
	c-1.456,3.999-2.492,8.104-3.31,12.279c0.044-1.289,0.151-2.566,0.192-3.851c0.039-1.296,0.05-2.586,0.007-3.881
	c-0.044-1.317-0.129-2.629-0.269-3.938c-0.136-1.282-0.323-2.563-0.56-3.835c-0.227-1.229-0.536-2.436-0.808-3.657
	c1.044,7.47-0.401,14.358-4.587,20.663c0.115-1.319,0.297-2.634,0.582-3.927c0.295-1.324,0.646-2.645,1.052-3.938
	c0.385-1.248,0.87-2.467,1.312-3.696c-2.621,3.431-4.348,7.269-5.448,11.384c0.107-2.713,0.215-5.429,0.321-8.142
	c-0.041-0.001-0.082-0.003-0.124-0.005c-0.723,2.728-1.447,5.454-2.172,8.18c-0.068-0.013-0.138-0.027-0.205-0.042
	c1.167-7.417,0.223-14.537-2.979-21.343c-0.055,0.096-0.055,0.187-0.026,0.27c1.896,5.511,1.509,10.89-0.932,16.164
	c-0.841,1.817-1.644,3.655-1.857,5.692c-0.88-2.309-1.148-4.698-1.077-7.149c-0.069-0.009-0.142-0.018-0.213-0.026
	c-0.335,1.469-0.667,2.931-1.008,4.435c-0.404-5.917,0.249-11.708,1.62-17.441c-3.8,6.237-4.87,13.213-5.576,20.302
	c-0.662-1.851-1.012-3.751-1.188-5.668c-0.172-1.905-0.248-3.822-0.295-5.737c-0.05-1.905-0.012-3.813-0.012-5.599
	c-0.845,4.038-1.248,8.259-1.445,12.508c-0.316-2.666-1.059-5.181-2.338-7.456c0.382,2.17,0.824,4.381,1.155,6.608
	c0.08,0.533,0.138,1.103,0.176,1.679c-0.425,0.68-0.837,1.267-1.232,1.741c-0.249-0.621-0.528-1.237-0.878-1.848
	c-0.07,0.947-0.132,1.759-0.193,2.568c-0.051-0.001-0.104-0.003-0.153-0.004c-0.029-0.382-0.061-0.759-0.09-1.138
	c0.452-1.524,0.905-3.047,1.359-4.579c-0.056-0.026-0.113-0.053-0.171-0.079c-0.613,0.435-1.158,0.93-1.675,1.451
	c-0.193-0.715-0.453-1.412-0.835-2.076c-0.445-0.786-1.018-1.453-1.91-1.959c0.52,2.376,0.696,4.688,0.435,7.048
	c-0.085,0.143-0.18,0.275-0.262,0.42c-0.085-0.02-0.169-0.039-0.254-0.059c-0.239-3.604-0.478-7.213-0.699-10.527
	c-0.123,0.825-0.291,1.646-0.483,2.468c-0.037-0.258-0.075-0.516-0.111-0.773c-0.068-0.002-0.138-0.004-0.209-0.005
	c-0.438,1.91-0.881,3.823-1.321,5.736c-0.485,1.117-1.039,2.217-1.68,3.288c-0.266-0.825-0.583-1.555-0.948-2.162
	c0.426-2.493,1.693-4.776,3.073-7.106c-2.943,1.559-4.901,3.793-6.307,6.573c0.802-3.664,1.604-7.332,2.405-10.997
	c-0.059-0.021-0.118-0.043-0.178-0.064c-0.761,1.399-1.523,2.795-2.288,4.195c0.023-2.322-0.167-4.575-0.879-6.774
	c0.221,2.744-0.021,5.441-0.749,8.089c-0.315,1.151-0.728,2.252-1.214,3.321c-0.243-0.438-0.496-0.87-0.762-1.299
	c0.092,0.82,0.147,1.639,0.183,2.456c-0.526,0.979-1.117,1.929-1.826,2.822c0.458-6.274,1.695-12.386,3.464-18.417
	c-1.956,1.442-3.483,3.223-4.701,5.267c-1.209,2.041-1.993,4.24-2.576,6.541c0.142-3.515,0.28-7.022,0.421-10.53
	c-0.023-0.004-0.047-0.006-0.071-0.011c-1.11,5.378-2.219,10.753-3.331,16.137c-0.052-0.005-0.104-0.01-0.156-0.014
	c-0.553-4.531-1.514-8.961-2.999-13.288c-0.154,2.699-0.24,5.363-0.476,8.013c-0.238,2.675-0.738,5.319-1.578,7.895
	c-0.307-5.674-0.615-11.349-0.924-17.022c-0.579,7.131-4.047,13.121-7.658,19.062c-0.283-8.035,1.586-15.55,5.448-22.603
	c-1.475,1.816-2.893,3.644-4.271,5.505c-2.484,3.354-5.36,6.479-6.559,10.627c0.443-4.813,1.955-9.287,4.373-13.471
	c-1.61,1.354-2.922,2.937-4.018,4.696c-1.102,1.765-1.923,3.655-2.607,5.633c0.039-4.614-0.349-9.162-1.511-13.629
	c-0.076,6.641-0.96,13.155-2.757,19.584c0.056-3.115,0.156-6.184,0.15-9.249c-0.004-2.406-0.553-7.619-1.054-9.117
	c0.427,6.687-0.7,13.074-3.495,19.257c-0.426-0.397-0.917-0.539-0.913-1.166c0.023-3.398-0.242-6.785-0.823-10.133
	c-0.317-1.834-0.716-3.659-1.082-5.484c-0.056,0.003-0.111,0.008-0.167,0.012c1.011,7.132-1.303,13.645-3.695,20.297
	c0.379-5.812,0.743-11.467,1.109-17.122c-0.086-0.014-0.17-0.027-0.257-0.04c-0.521,1.739-1.074,3.472-1.56,5.229
	c-0.478,1.732-0.913,3.48-1.323,5.229c-0.403,1.738-0.755,3.487-1.126,5.237c-0.218-8.029-2.719-15.488-5.376-22.915
	c1.606,7.107,1.32,14.111-1.104,20.999c-0.311-5.346,0.158-10.625,1.251-15.871c-2.591,4.046-4.62,8.346-6.348,12.823
	c0.165-2.28,0.364-4.531,0.741-6.759c0.372-2.221,0.923-4.405,1.431-6.785c-1.605,2.384-2.811,4.763-3.767,7.271
	c-0.96,2.519-1.589,5.114-2.037,7.77c-0.063-3.662-0.364-7.29-1.057-10.878c-0.689-3.568-1.682-7.043-3.125-10.385
	c0.897,3.566,0.835,7.136,0.146,10.715c-0.663,3.445-2.546,9.364-3.253,10.242c0.533-4.967,0.836-9.933,0.76-14.928
	c-2.13,4.453-3.591,9.112-4.634,13.916c-0.245-3.521,0.226-6.952,1.118-10.354c-2.669,3.193-4.397,6.823-5.282,10.86
	c-0.061-0.012-0.121-0.021-0.181-0.034c0.411-3.682,0.827-7.364,1.244-11.097c-1.618,3.935-2.622,7.978-3.267,12.159
	c-0.258-0.72-0.462-1.447-0.531-2.183c-0.434-4.595-1.445-9.06-3.037-13.398c-0.529-1.441-1.139-2.86-1.716-4.284
	c-0.063,0.015-0.124,0.029-0.186,0.042c1.422,6.469,1.357,12.896-0.319,19.285c-0.056,0-0.112,0.003-0.169,0.003
	c-0.683-4.321-1.367-8.638-2.05-12.959c-0.12,5.577-1.259,10.904-3.801,15.916c0.307-3.625,0.609-7.248,0.914-10.873
	c-2.334,3.154-3.715,6.667-4.539,10.422c0.221-4.678-0.104-9.301-0.971-13.883c-0.056-0.002-0.111-0.002-0.166-0.003
	c-0.904,4.387-1.811,8.773-2.716,13.166c-0.045-0.007-0.091-0.014-0.136-0.021c-0.943-4.787-1.887-9.575-2.83-14.363
	c-0.454,5.324-0.729,10.647-1.737,15.906c-0.831-2.26-1.404-4.579-1.647-6.962c-0.246-2.384-0.349-4.788-0.51-7.106
	c-0.967,3.166-2.13,6.411-3.123,9.662c-0.054-0.008-0.33-0.015-0.33-0.022c0-0.22,0-0.44,0-0.66c0-5.874,1.078-11.62,2.639-17.283
	c-3.828,5.582-6.39,11.675-7.979,18.234c-0.05-0.015-0.058-0.028-0.106-0.042c0.375-3.398,0.771-6.797,1.147-10.202
	c-1.971,4.282-3.274,8.752-4.243,13.344c0.23-3.124,0.068-6.213-0.424-9.297c-0.494-3.08-1.332-6.053-2.632-8.909
	c0.186,5.949-0.672,11.714-2.755,17.458c-1.138-2.993-1.453-5.907-1.094-8.906c-0.07-0.019-0.143-0.036-0.216-0.055
	c-0.852,2.463-1.705,4.916-2.601,7.498c0.188-5.998,1.564-11.595,3.983-16.967c-1.629,1.609-2.842,3.48-3.808,5.518
	c-1.404,2.957-2.239,6.101-2.931,9.288c-0.098,0.446-0.185,0.903-0.282,1.351c-0.092,0.424,0.174,0.84,0.076,1.262
	c-0.05-0.006,0.225-0.012,0.225-0.019c0-2.238,0-4.469,0-6.707c0-0.004-0.497-0.009-0.562-0.013
	c-0.23,2.596-0.948,5.107-2.245,7.402c0.166-4.897-0.402-9.703-1.683-14.432c-0.688,5.222-2.074,10.233-4.497,14.935
	c0.02-4.282,0.527-8.495,1.237-12.729c-0.311,0.258-0.619,0.526-0.779,0.855c-0.279,0.582-0.542,1.184-0.698,1.802
	c-0.684,2.713-1.328,5.43-1.989,8.143c-0.135,0.55-0.288,1.104-0.432,1.653c-0.041-0.007-0.083-0.015-0.124-0.021
	c-0.761-3.957-1.521-7.914-2.281-11.863c-0.053,2.485-0.264,4.937-0.808,7.356c-0.539,2.392-1.323,4.703-2.552,6.851
	c-0.313-4.021,0.176-7.942,1.311-11.794c-0.066-0.018-0.132-0.038-0.198-0.059c-0.854,2.055-1.708,4.107-2.634,6.327
	c0.112-3.237-0.113-6.282-0.651-9.307c-0.574-3.213-1.988-7.897-2.683-8.73c1.193,6.771,0.924,13.429-1.049,19.997
	c0.104-2.934,0.209-5.864,0.313-8.799c-1.641,2.507-2.843,5.209-3.957,7.946c0.47-2.879,0.939-5.757,1.409-8.635
	c-0.063-0.015-0.126-0.027-0.188-0.041c-1.853,3.401-3.039,7.029-3.739,10.835c-0.197-3.932-1.548-7.523-3.088-11.065
	c-0.006,4.758-0.063,9.494-0.508,14.224c-2.438-4.074-2.009-8.503-1.686-12.939c-1.149,1.263-2.536,5.301-3.554,10.247
	c-0.027-0.895-0.055-1.785-0.023-2.675c0.219-6.3,1.265-12.466,3.205-18.478c-4.463,5.883-6.733,12.526-7.062,19.857
	c-0.465-4.051-1.505-7.952-2.699-11.825c-0.004,1.138,0.075,2.266,0.112,3.392c0.037,1.132,0.064,2.258,0.041,3.39
	c-0.022,1.132-0.078,2.265-0.186,3.392c-0.106,1.119-0.262,2.242-0.453,3.358c-0.187,1.077-0.446,2.14-0.674,3.208
	c-0.051-0.004-0.104-0.009-0.153-0.013c0.258-4.156-1.122-7.94-2.596-11.704c0.006,3.64-0.265,7.239-1.087,10.793
	c-1.746-6.258-0.888-12.526-0.142-18.82c-1.77,2.478-3.338,5.047-4.578,7.81c-1.249,2.783-2.138,5.664-2.475,8.705
	c-0.196-6.243,0.695-12.347,2.479-18.356c-0.236,0.134-0.422,0.292-0.586,0.471c-1.304,1.399-2.09,3.1-2.731,4.867
	c-1.454,3.999-2.492,8.104-3.309,12.279c0.044-1.289,0.15-2.566,0.19-3.851c0.041-1.296,0.051-2.586,0.008-3.881
	c-0.044-1.317-0.13-2.629-0.268-3.938c-0.138-1.282-0.328-2.563-0.561-3.835c-0.226-1.229-0.537-2.436-0.809-3.657
	c1.042,7.47-0.399,14.358-4.588,20.663c0.118-1.319,0.299-2.634,0.584-3.927c0.293-1.324,0.646-2.645,1.05-3.938
	c0.386-1.248,0.871-2.467,1.312-3.696c-2.617,3.431-4.347,7.269-5.444,11.384c0.104-2.713,0.211-5.429,0.317-8.142
	c-0.041-0.001-0.082-0.003-0.123-0.005c-0.723,2.728-1.447,5.454-2.169,8.18c-0.069-0.013-0.14-0.027-0.208-0.042
	c1.169-7.417,0.225-14.537-2.98-21.343c-0.053,0.096-0.053,0.187-0.025,0.27c1.896,5.511,1.509,10.89-0.931,16.164
	c-0.843,1.817-1.643,3.655-1.857,5.692c-0.881-2.309-1.151-4.698-1.076-7.149c-0.071-0.009-0.143-0.018-0.213-0.026
	c-0.335,1.469-0.669,2.931-1.011,4.435c-0.4-5.917,0.249-11.708,1.622-17.441c-3.799,6.237-4.871,13.213-5.576,20.302
	c-0.663-1.851-1.013-3.751-1.187-5.668c-0.174-1.905-0.249-3.822-0.298-5.737c-0.049-1.905-0.011-3.813-0.011-5.599
	c-0.844,4.038-1.248,8.259-1.444,12.508c-0.317-2.666-1.059-5.181-2.34-7.456c0.384,2.17,0.824,4.381,1.158,6.608
	c0.259,1.736,0.289,3.873,0.156,5.297c-0.159,0.198-0.312,0.389-0.468,0.582c-0.097-0.454-0.214-0.903-0.352-1.347
	c0.004-0.022,0.008-0.044,0.011-0.066c0.097-0.707,0.152-1.421,0.205-2.133c0.048-0.685,0.069-1.365,0.104-2.045
	c-0.421,0.762-0.827,1.425-1.221,2.009c-0.121-0.241-0.233-0.483-0.37-0.725c-0.037,0.496-0.073,0.952-0.106,1.393
	c-0.103,0.136-0.203,0.266-0.304,0.388c-0.026-0.332-0.05-0.666-0.079-0.996c-0.073-0.817-0.186-1.622-0.383-2.403
	c0.151-0.512,0.303-1.021,0.455-1.533c-0.058-0.026-0.115-0.053-0.174-0.079c-0.223,0.158-0.42,0.341-0.63,0.511
	c-0.149-0.387-0.323-0.766-0.536-1.136c-0.449-0.786-1.017-1.453-1.912-1.959c0.365,1.673,0.557,3.314,0.552,4.962
	c-0.299,0.361-0.587,0.729-0.854,1.119c-0.362-2.529-0.719-5.026-1.073-7.505c-0.069-0.002-0.139-0.004-0.207-0.005
	c-0.11,0.477-0.22,0.953-0.33,1.431c-0.071-1.061-0.14-2.107-0.208-3.12c-0.471,3.163-1.452,6.316-3.014,9.3
	c-0.409-0.869-0.896-1.555-1.447-2.025c0.575-2.007,1.641-3.902,2.781-5.829c-2.943,1.559-4.902,3.793-6.305,6.573
	c0.801-3.664,1.602-7.332,2.403-10.997c-0.059-0.021-0.118-0.043-0.177-0.064c-0.763,1.399-1.525,2.795-2.286,4.195
	c0.021-2.322-0.171-4.575-0.879-6.774c0.218,2.744-0.022,5.441-0.752,8.089c-0.729,2.663-1.885,5.118-3.618,7.301
	c0.459-6.274,1.695-12.386,3.465-18.417c-1.956,1.442-3.485,3.223-4.702,5.267c-1.207,2.041-1.992,4.24-2.577,6.541
	c0.14-3.515,0.282-7.022,0.424-10.53c-0.025-0.004-0.048-0.006-0.073-0.011c-1.111,5.378-2.221,10.753-3.331,16.137
	c-0.052-0.005-0.104-0.01-0.155-0.014c-0.556-4.531-1.518-8.961-2.999-13.288c-0.154,2.699-0.242,5.363-0.479,8.013
	c-0.235,2.675-0.736,5.319-1.574,7.895c-0.311-5.674-0.617-11.349-0.925-17.022c-0.581,7.131-4.049,13.121-7.658,19.062
	c-0.286-8.035,1.581-15.55,5.445-22.603c-1.472,1.816-2.893,3.644-4.27,5.505c-2.483,3.354-5.361,6.479-6.557,10.627
	c0.442-4.813,1.953-9.287,4.373-13.471c-1.613,1.354-2.922,2.937-4.021,4.696c-1.102,1.765-1.922,3.655-2.604,5.633
	c0.04-4.614-0.352-9.162-1.511-13.629c-0.078,6.641-0.963,13.155-2.759,19.584c0.055-3.115,0.155-6.184,0.149-9.249
	c-0.005-2.406-0.55-7.619-1.054-9.117c0.43,6.687-0.696,13.074-3.492,19.257c-0.429-0.397-0.915-0.539-0.911-1.166
	c0.021-3.398-0.247-6.785-0.826-10.133c-0.316-1.834-0.717-3.659-1.08-5.484c-0.056,0.003-0.112,0.008-0.168,0.012
	c1.012,7.132-1.306,13.645-3.694,20.297c0.376-5.812,0.742-11.467,1.108-17.122c-0.086-0.014-0.171-0.027-0.257-0.04
	c-0.523,1.739-1.076,3.472-1.561,5.229c-0.479,1.732-0.913,3.48-1.322,5.229c-0.405,1.738-0.756,3.487-1.13,5.237
	c-0.215-8.029-2.716-15.488-5.374-22.915c1.607,7.107,1.32,14.111-1.101,20.999c-0.314-5.346,0.155-10.625,1.248-15.871
	c-2.592,4.046-4.622,8.346-6.35,12.823c0.166-2.28,0.366-4.531,0.742-6.759c0.374-2.221,0.922-4.405,1.432-6.785
	c-1.605,2.384-2.809,4.763-3.767,7.271c-0.958,2.519-1.59,5.114-2.037,7.77c-0.063-3.662-0.365-7.29-1.059-10.878
	c-0.687-3.568-1.678-7.043-3.123-10.385c0.896,3.566,0.835,7.136,0.145,10.715c-0.66,3.445-2.544,9.364-3.253,10.242
	c0.534-4.967,0.838-9.933,0.763-14.928c-2.132,4.453-3.593,9.112-4.635,13.916c-0.246-3.521,0.224-6.952,1.117-10.354
	c-2.672,3.193-4.397,6.823-5.283,10.86c-0.062-0.012-0.121-0.021-0.182-0.034c0.413-3.682,0.828-7.364,1.248-11.097
	c-1.62,3.935-2.624,7.978-3.271,12.159c-0.255-0.72-0.459-1.447-0.527-2.183c-0.438-4.595-1.448-9.06-3.039-13.398
	c-0.53-1.441-1.142-2.86-1.715-4.284c-0.062,0.015-0.123,0.029-0.187,0.042c1.421,6.469,1.358,12.896-0.321,19.285
	c-0.056,0-0.111,0.003-0.168,0.003c-0.686-4.321-1.364-8.638-2.049-12.959c-0.121,5.577-1.259,10.904-3.803,15.916
	c0.307-3.625,0.612-7.248,0.917-10.873c-2.337,3.154-3.717,6.667-4.54,10.422c0.219-4.678-0.104-9.301-0.972-13.883
	c-0.056-0.002-0.11-0.002-0.166-0.003c-0.905,4.387-1.811,8.773-2.715,13.166c-0.046-0.007-0.091-0.014-0.136-0.021
	c-0.943-4.787-1.887-9.575-2.83-14.363c-0.454,5.324-0.731,10.647-1.739,15.906c-0.833-2.26-1.401-4.579-1.646-6.962
	c-0.246-2.384-0.348-4.788-0.509-7.106c-0.967,3.166-2.038,6.411-3.031,9.662c-0.054-0.008-0.236-0.015-0.236-0.022
	c0-0.22,0-0.44,0-0.66c0-5.874,0.988-11.62,2.543-17.283c-3.826,5.582-6.434,11.675-8.023,18.234
	c-0.051-0.015-0.082-0.028-0.131-0.042c0.377-3.398,0.763-6.797,1.138-10.202c-1.971,4.282-3.283,8.752-4.251,13.344
	c0.232-3.124,0.067-6.213-0.427-9.297c-0.492-3.08-1.333-6.053-2.632-8.909c0.186,5.949-0.673,11.714-2.757,17.458
	c-1.137-2.993-1.454-5.907-1.092-8.906c-0.072-0.019-0.144-0.036-0.216-0.055c-0.853,2.463-1.706,4.916-2.604,7.498
	c0.189-5.998,1.566-11.595,3.985-16.967c-1.63,1.609-2.843,3.48-3.809,5.518c-1.403,2.957-2.239,6.101-2.932,9.288
	c-0.098,0.446-0.182,0.903-0.279,1.351c-0.093,0.424-0.235,0.84-0.335,1.262c-0.048-0.006-0.18-0.012-0.18-0.019
	c0-2.238,0-4.469,0-6.707c0-0.004-0.09-0.009-0.155-0.013c-0.23,2.596-0.743,5.107-2.042,7.402c0.168-4.897-0.3-9.703-1.58-14.432
	c-0.687,5.222-2.021,10.233-4.445,14.935c0.02-4.282,0.552-8.495,1.26-12.729c-0.309,0.258-0.604,0.526-0.765,0.855
	c-0.278,0.582-0.534,1.184-0.691,1.802c-0.683,2.713-1.325,5.43-1.988,8.143c-0.132,0.55-0.284,1.104-0.429,1.653
	c-0.041-0.007-0.081-0.015-0.12-0.021c-0.763-3.957-1.522-7.914-2.283-11.863c-0.053,2.485-0.263,4.937-0.807,7.356
	c-0.54,2.392-1.323,4.703-2.552,6.851c-0.313-4.021,0.175-7.942,1.313-11.794c-0.067-0.018-0.135-0.038-0.201-0.059
	c-0.853,2.055-1.707,4.107-2.634,6.327c0.111-3.237-0.112-6.282-0.651-9.307c-0.573-3.213-1.988-7.897-2.684-8.73
	c1.195,6.771,0.926,13.429-1.047,19.997c0.104-2.934,0.207-5.864,0.313-8.799c-1.642,2.507-2.843,5.209-3.957,7.946
	c0.469-2.879,0.938-5.757,1.408-8.635c-0.063-0.015-0.125-0.027-0.188-0.041c-1.852,3.401-3.038,7.029-3.739,10.835
	c-0.198-3.932-1.547-7.523-3.09-11.065c-0.005,4.758-0.061,9.494-0.507,14.224c-2.437-4.074-2.009-8.503-1.683-12.939
	c-1.152,1.263-2.537,5.301-3.555,10.247c-0.028-0.895-0.055-1.785-0.024-2.675c0.221-6.3,1.263-12.466,3.204-18.478
	c-4.461,5.883-6.733,12.526-7.059,19.857c-0.466-4.051-1.507-7.952-2.7-11.825c-0.004,1.138,0.075,2.266,0.111,3.392
	c0.038,1.132,0.063,2.258,0.041,3.39c-0.023,1.132-0.077,2.265-0.185,3.392c-0.107,1.119-0.263,2.242-0.454,3.358
	c-0.186,1.077-0.444,2.14-0.674,3.208c-0.052-0.004-0.103-0.009-0.154-0.013c0.259-4.156-1.119-7.94-2.595-11.704
	c0.007,3.64-0.265,7.239-1.088,10.793c-1.746-6.258-0.886-12.526-0.142-18.82c-1.768,2.478-3.337,5.047-4.577,7.81
	c-1.248,2.783-2.14,5.664-2.475,8.705c-0.195-6.243,0.697-12.347,2.479-18.356c-0.238,0.134-0.422,0.292-0.588,0.471
	c-1.302,1.399-2.088,3.1-2.731,4.867c-1.361,3.744-2.35,7.586-3.14,11.486c-0.046,0.068-0.093,0.133-0.138,0.198
	c0.051-1.088,0.126-2.17,0.159-3.256c0.041-1.296,0.051-2.586,0.009-3.881c-0.044-1.317-0.127-2.629-0.269-3.938
	c-0.136-1.282-0.324-2.563-0.56-3.835c-0.225-1.229-0.537-2.436-0.809-3.657c0.965,6.909-0.201,13.319-3.695,19.231
	c-0.044-0.011-0.087-0.02-0.131-0.03c-0.056-0.839-0.111-1.676-0.167-2.512c0.293-1.308,0.642-2.613,1.039-3.892
	c0.387-1.248,0.87-2.467,1.312-3.696c-0.983,1.289-1.841,2.637-2.587,4.033c-0.102-1.524-0.202-3.023-0.298-4.461
	c-0.405,2.732-1.2,5.456-2.413,8.07c0.057-1.467,0.113-2.934,0.172-4.4c-0.042-0.001-0.083-0.003-0.123-0.005
	c-0.723,2.728-1.447,5.454-2.17,8.18c-0.069-0.013-0.138-0.027-0.208-0.042c0.271-1.714,0.415-3.412,0.458-5.095
	c0.602-1.799,1.57-3.52,2.604-5.263c-1.003,0.531-1.884,1.147-2.675,1.831c-0.305-4.387-1.408-8.661-3.366-12.816
	c-0.055,0.096-0.055,0.187-0.027,0.27c0.898,2.609,1.268,5.188,1.166,7.74c-0.488,0.895-0.975,1.787-1.463,2.683
	c0.023-2.322-0.167-4.575-0.878-6.774c0.219,2.744-0.022,5.441-0.75,8.089c-0.457,1.663-1.103,3.233-1.928,4.718
	c-0.025-0.579-0.03-1.161-0.013-1.748c-0.068-0.009-0.141-0.018-0.212-0.026c-0.252,1.117-0.508,2.235-0.767,3.366
	c-0.09,0.13-0.181,0.259-0.274,0.388c-0.054-0.986-0.077-1.971-0.074-2.95c0.604-5.035,1.68-9.977,3.113-14.863
	c-0.497,0.366-0.965,0.755-1.408,1.164c0.009-0.037,0.016-0.075,0.024-0.111c-0.042,0.069-0.079,0.139-0.12,0.209
	c-1.26,1.179-2.314,2.52-3.197,4.005c-1.209,2.041-1.993,4.24-2.58,6.541c0.143-3.515,0.283-7.022,0.424-10.53
	c-0.022-0.004-0.046-0.006-0.07-0.011c-0.51,2.468-1.021,4.937-1.529,7.403c-0.014-1.472-0.001-2.935-0.001-4.319
	c-0.732,3.505-1.121,7.15-1.344,10.83c-0.07,0.337-0.139,0.673-0.209,1.009c-0.275-1.873-0.766-3.668-1.522-5.35
	c-0.501-2.273-1.12-4.52-1.881-6.738c-0.153,2.699-0.242,5.363-0.477,8.013c-0.082,0.915-0.206,1.823-0.352,2.73
	c-0.147-0.381-0.321-0.754-0.529-1.118c-0.297-0.516-0.655-0.975-1.112-1.378c-0.17-3.121-0.339-6.241-0.509-9.362
	c-0.212,2.606-0.813,5.061-1.662,7.415c-0.003-0.019-0.006-0.038-0.009-0.058c-0.067-0.002-0.136-0.004-0.206-0.005
	c-0.119,0.515-0.238,1.032-0.356,1.546c-0.881,2.146-1.955,4.218-3.113,6.256c-0.462-1.036-1.023-1.85-1.674-2.35
	c0.127,2.138-0.047,4.2-0.603,6.199c-0.011,0.02-0.023,0.038-0.034,0.058c-0.285-8.035,1.583-15.55,5.447-22.603
	c-1.471,1.816-2.893,3.644-4.27,5.505c-2.103,2.841-4.478,5.525-5.887,8.798c-0.115-0.194-0.224-0.392-0.344-0.585
	c0.665-3.902,2.037-7.582,4.046-11.057c-1.611,1.354-2.923,2.937-4.021,4.696c-1.102,1.765-1.921,3.655-2.604,5.633
	c0.04-4.614-0.352-9.162-1.512-13.629c-0.076,6.641-0.962,13.155-2.757,19.584c0.055-3.115,0.154-6.184,0.149-9.249
	c-0.004-2.406-0.549-7.619-1.053-9.117c0.43,6.687-0.697,13.074-3.494,19.257c-0.427-0.397-0.915-0.539-0.911-1.166
	c0.023-3.398-0.245-6.785-0.825-10.133c-0.316-1.834-0.718-3.659-1.08-5.484c-0.057,0.003-0.113,0.008-0.169,0.012
	c1.013,7.132-1.304,13.645-3.694,20.297c0.377-5.812,0.744-11.467,1.109-17.122c-0.085-0.014-0.172-0.027-0.258-0.04
	c-0.522,1.739-1.076,3.472-1.56,5.229c-0.479,1.732-0.914,3.48-1.323,5.229c-0.405,1.738-0.753,3.487-1.127,5.237
	c-0.218-8.029-2.717-15.488-5.374-22.915c1.606,7.107,1.318,14.111-1.104,20.999c-0.313-5.346,0.159-10.625,1.25-15.871
	c-2.591,4.046-4.622,8.346-6.349,12.823c0.167-2.28,0.366-4.531,0.741-6.759c0.374-2.221,0.922-4.405,1.431-6.785
	c-1.605,2.384-2.809,4.763-3.766,7.271c-0.958,2.519-1.589,5.114-2.036,7.77c-0.063-3.662-0.367-7.29-1.059-10.878
	c-0.687-3.568-1.679-7.043-3.125-10.385c0.896,3.566,0.836,7.136,0.147,10.715c-0.664,3.445-2.544,9.364-3.253,10.242
	c0.534-4.967,0.839-9.933,0.762-14.928c-2.132,4.453-3.592,9.112-4.635,13.916c-0.244-3.521,0.223-6.952,1.118-10.354
	c-2.669,3.193-4.397,6.823-5.284,10.86c-0.059-0.012-0.12-0.021-0.18-0.034c0.413-3.682,0.827-7.364,1.245-11.097
	c-1.619,3.935-2.623,7.978-3.268,12.159c-0.256-0.72-0.459-1.447-0.529-2.183c-0.436-4.595-1.448-9.06-3.037-13.398
	c-0.531-1.441-1.142-2.86-1.716-4.284c-0.063,0.015-0.124,0.029-0.188,0.042c1.422,6.469,1.358,12.896-0.32,19.285
	c-0.057,0-0.114,0.003-0.169,0.003c-0.683-4.321-1.364-8.638-2.048-12.959c-0.118,5.577-1.259,10.904-3.802,15.916
	c0.307-3.625,0.611-7.248,0.916-10.873c-2.336,3.154-3.716,6.667-4.541,10.422c0.222-4.678-0.105-9.301-0.971-13.883
	c-0.055-0.002-0.109-0.002-0.165-0.003c-0.905,4.387-1.812,8.773-2.716,13.166c-0.045-0.007-0.09-0.014-0.135-0.021
	c-0.943-4.787-1.886-9.575-2.83-14.363c-0.453,5.324-0.73,10.647-1.737,15.906c-0.832-2.26-1.401-4.579-1.647-6.962
	c-0.246-2.384-0.35-4.788-0.51-7.106c-0.966,3.166-1.76,6.411-2.754,9.662C858.909,19.84,859,19.833,859,19.825
	c0-0.22,0-0.44,0-0.66c0-5.874,0.711-11.62,2.267-17.283c-3.824,5.582-6.57,11.675-8.161,18.234
	c-0.049-0.015-0.148-0.028-0.198-0.042c0.375-3.398,0.727-6.797,1.102-10.202c-1.969,4.282-3.298,8.752-4.265,13.344
	c0.229-3.124,0.057-6.213-0.438-9.297c-0.493-3.08-1.338-6.053-2.636-8.909c0.185,5.949-0.676,11.714-2.758,17.458
	c-1.138-2.993-1.456-5.907-1.093-8.906c-0.074-0.019-0.148-0.036-0.22-0.055c-0.853,2.463-1.704,4.916-2.601,7.498
	c0.188-5.998,1.564-11.595,3.984-16.967c-1.629,1.609-2.842,3.48-3.809,5.518c-1.404,2.957-2.24,6.101-2.931,9.288
	c-0.098,0.446-0.182,0.903-0.282,1.351c-0.093,0.424-0.458,0.84-0.556,1.262C836.359,21.45,836,21.444,836,21.438
	c0-2.238,0-4.469,0-6.707c0-0.004,0.134-0.009,0.071-0.013c-0.232,2.596-0.634,5.107-1.93,7.402
	c0.167-4.897-0.246-9.703-1.527-14.432c-0.687,5.222-1.994,10.233-4.417,14.935c0.02-4.282,0.567-8.495,1.275-12.729
	c-0.31,0.258-0.599,0.526-0.758,0.855c-0.28,0.582-0.532,1.184-0.688,1.802c-0.684,2.713-1.323,5.43-1.985,8.143
	c-0.136,0.55-0.286,1.104-0.429,1.653c-0.04-0.007-0.081-0.015-0.123-0.021c-0.759-3.957-1.52-7.914-2.279-11.863
	c-0.054,2.485-0.265,4.937-0.809,7.356c-0.539,2.392-1.324,4.703-2.551,6.851c-0.313-4.021,0.175-7.942,1.31-11.794
	c-0.066-0.018-0.132-0.038-0.199-0.059c-0.853,2.055-1.709,4.107-2.635,6.327c0.113-3.237-0.113-6.282-0.65-9.307
	c-0.573-3.213-1.988-7.897-2.685-8.73c1.195,6.771,0.926,13.429-1.047,19.997c0.105-2.934,0.209-5.864,0.313-8.799
	c-1.641,2.507-2.842,5.209-3.956,7.946c0.469-2.879,0.938-5.757,1.409-8.635c-0.064-0.015-0.127-0.027-0.19-0.041
	c-1.853,3.401-3.038,7.029-3.739,10.835c-0.197-3.932-1.547-7.523-3.088-11.065c-0.004,4.758-0.062,9.494-0.506,14.224
	c-2.438-4.074-2.009-8.503-1.686-12.939c-1.15,1.263-2.537,5.301-3.554,10.247c-0.028-0.895-0.054-1.785-0.023-2.675
	c0.218-6.3,1.265-12.466,3.205-18.478c-4.464,5.883-6.733,12.526-7.06,19.857c-0.467-4.051-1.506-7.952-2.702-11.825
	c-0.003,1.138,0.075,2.266,0.114,3.392c0.038,1.132,0.064,2.258,0.041,3.39s-0.08,2.265-0.186,3.392
	c-0.106,1.119-0.262,2.242-0.454,3.358c-0.186,1.077-0.445,2.14-0.673,3.208c-0.051-0.004-0.103-0.009-0.153-0.013
	c0.257-4.156-1.122-7.94-2.597-11.704c0.007,3.64-0.264,7.239-1.086,10.793c-1.748-6.258-0.887-12.526-0.142-18.82
	c-1.769,2.478-3.336,5.047-4.578,7.81c-1.249,2.783-2.138,5.664-2.475,8.705c-0.197-6.243,0.695-12.347,2.479-18.356
	c-0.237,0.134-0.423,0.292-0.587,0.471c-1.304,1.399-2.089,3.1-2.733,4.867c-1.452,3.999-2.49,8.104-3.306,12.279
	c0.043-1.289,0.15-2.566,0.191-3.851c0.04-1.296,0.05-2.586,0.008-3.881c-0.044-1.317-0.13-2.629-0.27-3.938
	c-0.136-1.282-0.326-2.563-0.56-3.835c-0.226-1.229-0.536-2.436-0.81-3.657c1.043,7.47-0.398,14.358-4.586,20.663
	c0.117-1.319,0.298-2.634,0.583-3.927c0.293-1.324,0.647-2.645,1.051-3.938c0.386-1.248,0.87-2.467,1.313-3.696
	c-2.619,3.431-4.347,7.269-5.446,11.384c0.106-2.713,0.211-5.429,0.317-8.142c-0.041-0.001-0.082-0.003-0.123-0.005
	c-0.723,2.728-1.446,5.454-2.17,8.18c-0.069-0.013-0.137-0.027-0.207-0.042c1.169-7.417,0.225-14.537-2.98-21.343
	c-0.053,0.096-0.053,0.187-0.025,0.27c1.896,5.511,1.509,10.89-0.932,16.164c-0.841,1.817-1.643,3.655-1.856,5.692
	c-0.88-2.309-1.15-4.698-1.078-7.149c-0.071-0.009-0.143-0.018-0.214-0.026c-0.332,1.469-0.667,2.931-1.009,4.435
	c-0.4-5.917,0.25-11.708,1.623-17.441c-3.8,6.237-4.871,13.213-5.578,20.302c-0.662-1.851-1.011-3.751-1.186-5.668
	c-0.174-1.905-0.249-3.822-0.298-5.737c-0.048-1.905-0.012-3.813-0.012-5.599c-0.842,4.038-1.249,8.259-1.444,12.508
	c-0.316-2.666-1.058-5.181-2.339-7.456c0.384,2.17,0.824,4.381,1.158,6.608c0.259,1.735,0.29,3.872,0.157,5.297
	c-0.16,0.198-0.313,0.388-0.469,0.581c-0.098-0.454-0.214-0.902-0.351-1.347c0.003-0.021,0.007-0.044,0.01-0.065
	c0.097-0.707,0.152-1.421,0.204-2.133c0.05-0.685,0.071-1.365,0.104-2.045c-0.42,0.762-0.826,1.425-1.22,2.009
	c-0.121-0.241-0.233-0.483-0.37-0.725c-0.037,0.496-0.072,0.952-0.105,1.393c-0.103,0.136-0.204,0.266-0.305,0.389
	c-0.025-0.332-0.05-0.667-0.08-0.997c-0.073-0.817-0.185-1.622-0.383-2.404c0.152-0.512,0.303-1.02,0.456-1.532
	c-0.057-0.026-0.115-0.053-0.172-0.079c-0.224,0.158-0.42,0.341-0.631,0.512c-0.148-0.387-0.324-0.767-0.536-1.137
	c-0.448-0.786-1.017-1.453-1.911-1.959c0.365,1.673,0.557,3.313,0.551,4.961c-0.298,0.361-0.587,0.73-0.854,1.12
	c-0.362-2.529-0.719-5.026-1.074-7.505c-0.07-0.002-0.14-0.004-0.209-0.005c-0.109,0.475-0.219,0.95-0.328,1.426
	c-0.071-1.059-0.14-2.104-0.207-3.115c-0.47,3.163-1.453,6.317-3.015,9.301c-0.409-0.869-0.897-1.556-1.447-2.026
	c0.575-2.007,1.64-3.902,2.781-5.829c-2.944,1.559-4.902,3.793-6.306,6.573c0.801-3.664,1.603-7.332,2.405-10.997
	c-0.06-0.021-0.118-0.043-0.178-0.064c-0.762,1.399-1.525,2.795-2.287,4.195c0.022-2.322-0.17-4.575-0.878-6.774
	c0.219,2.744-0.022,5.441-0.75,8.089c-0.731,2.663-1.885,5.118-3.62,7.301c0.458-6.274,1.696-12.386,3.465-18.417
	c-1.957,1.442-3.485,3.223-4.702,5.267c-1.209,2.041-1.994,4.24-2.578,6.541c0.142-3.515,0.281-7.022,0.423-10.53
	c-0.024-0.004-0.049-0.006-0.072-0.011c-1.11,5.378-2.221,10.753-3.331,16.137c-0.052-0.005-0.103-0.01-0.155-0.014
	c-0.556-4.531-1.516-8.961-2.999-13.288c-0.156,2.699-0.242,5.363-0.478,8.013c-0.237,2.675-0.737,5.319-1.576,7.895
	c-0.308-5.674-0.616-11.349-0.923-17.022c-0.581,7.131-4.05,13.121-7.66,19.062c-0.284-8.035,1.583-15.55,5.448-22.603
	c-1.473,1.816-2.894,3.644-4.27,5.505c-2.484,3.354-5.361,6.479-6.558,10.627c0.442-4.813,1.953-9.287,4.373-13.471
	c-1.611,1.354-2.922,2.937-4.02,4.696c-1.102,1.765-1.921,3.655-2.605,5.633c0.039-4.614-0.351-9.162-1.511-13.629
	c-0.077,6.641-0.961,13.155-2.758,19.584c0.056-3.115,0.155-6.184,0.149-9.249c-0.004-2.406-0.548-7.619-1.052-9.117
	c0.428,6.687-0.699,13.074-3.494,19.257c-0.427-0.397-0.915-0.539-0.911-1.166c0.022-3.398-0.247-6.785-0.825-10.133
	c-0.318-1.834-0.717-3.659-1.081-5.484c-0.057,0.003-0.113,0.008-0.17,0.012c1.013,7.132-1.303,13.645-3.693,20.297
	c0.376-5.812,0.742-11.467,1.109-17.122c-0.087-0.014-0.17-0.027-0.258-0.04c-0.521,1.739-1.076,3.472-1.56,5.229
	c-0.479,1.732-0.913,3.48-1.323,5.229c-0.404,1.738-0.753,3.487-1.126,5.237c-0.218-8.029-2.72-15.488-5.375-22.915
	c1.605,7.107,1.319,14.111-1.103,20.999c-0.313-5.346,0.157-10.625,1.25-15.871c-2.593,4.046-4.623,8.346-6.349,12.823
	c0.166-2.28,0.365-4.531,0.742-6.759c0.373-2.221,0.922-4.405,1.43-6.785c-1.604,2.384-2.809,4.763-3.766,7.271
	c-0.959,2.519-1.588,5.114-2.039,7.77c-0.063-3.662-0.363-7.29-1.056-10.878c-0.688-3.568-1.68-7.043-3.124-10.385
	c0.896,3.566,0.834,7.136,0.146,10.715c-0.663,3.445-2.545,9.364-3.253,10.242c0.532-4.967,0.837-9.933,0.759-14.928
	c-2.13,4.453-3.59,9.112-4.633,13.916c-0.245-3.521,0.225-6.952,1.118-10.354c-2.671,3.193-4.398,6.823-5.286,10.86
	c-0.06-0.012-0.119-0.021-0.179-0.034c0.413-3.682,0.827-7.364,1.245-11.097c-1.618,3.935-2.622,7.978-3.269,12.159
	c-0.255-0.72-0.459-1.447-0.529-2.183c-0.435-4.595-1.446-9.06-3.039-13.398c-0.527-1.441-1.138-2.86-1.713-4.284
	c-0.063,0.015-0.125,0.029-0.188,0.042c1.424,6.469,1.359,12.896-0.32,19.285c-0.056,0-0.111,0.003-0.168,0.003
	c-0.682-4.321-1.365-8.638-2.047-12.959c-0.122,5.577-1.261,10.904-3.802,15.916c0.305-3.625,0.609-7.248,0.915-10.873
	c-2.337,3.154-3.715,6.667-4.541,10.422c0.219-4.678-0.104-9.301-0.971-13.883c-0.055-0.002-0.11-0.002-0.166-0.003
	c-0.905,4.387-1.811,8.773-2.717,13.166c-0.044-0.007-0.089-0.014-0.134-0.021c-0.944-4.787-1.888-9.575-2.831-14.363
	c-0.455,5.324-0.731,10.647-1.739,15.906c-0.832-2.26-1.402-4.579-1.647-6.962c-0.247-2.384-0.348-4.788-0.509-7.106
	c-0.967,3.166-2.167,6.411-3.16,9.662c-0.054-0.008-0.37-0.015-0.37-0.022c0-0.22,0-0.44,0-0.66c0-5.874,1.119-11.62,2.676-17.283
	c-3.826,5.582-6.37,11.675-7.959,18.234c-0.05-0.015-0.047-0.028-0.098-0.042c0.376-3.398,0.778-6.797,1.155-10.202
	c-1.972,4.282-3.275,8.752-4.243,13.344c0.229-3.124,0.07-6.213-0.422-9.297c-0.494-3.08-1.333-6.053-2.631-8.909
	c0.184,5.949-0.673,11.714-2.755,17.458c-1.138-2.993-1.453-5.907-1.092-8.906c-0.072-0.019-0.144-0.036-0.217-0.055
	c-0.852,2.463-1.705,4.916-2.6,7.498c0.186-5.998,1.565-11.595,3.982-16.967c-1.628,1.609-2.843,3.48-3.808,5.518
	c-1.404,2.957-2.238,6.101-2.93,9.288c-0.098,0.446-0.184,0.903-0.281,1.351c-0.093,0.424,0.135,0.84,0.036,1.262
	C597.765,21.45,598,21.444,598,21.438c0-2.238,0-4.469,0-6.707c0-0.004-0.46-0.009-0.523-0.013
	c-0.229,2.596-0.929,5.107-2.224,7.402c0.166-4.897-0.393-9.703-1.676-14.432c-0.685,5.222-2.068,10.233-4.489,14.935
	c0.02-4.282,0.527-8.495,1.237-12.729c-0.309,0.258-0.618,0.526-0.778,0.855c-0.278,0.582-0.538,1.184-0.695,1.802
	c-0.683,2.713-1.33,5.43-1.99,8.143c-0.135,0.55-0.289,1.104-0.431,1.653c-0.042-0.007-0.083-0.015-0.123-0.021
	c-0.761-3.957-1.522-7.914-2.283-11.863c-0.053,2.485-0.265,4.937-0.807,7.356c-0.54,2.392-1.326,4.703-2.551,6.851
	c-0.313-4.021,0.173-7.942,1.309-11.794c-0.065-0.018-0.133-0.038-0.199-0.059c-0.854,2.055-1.709,4.107-2.635,6.327
	c0.114-3.237-0.112-6.282-0.65-9.307c-0.573-3.213-1.987-7.897-2.684-8.73c1.194,6.771,0.926,13.429-1.046,19.997
	c0.102-2.934,0.207-5.864,0.311-8.799c-1.64,2.507-2.843,5.209-3.955,7.946c0.469-2.879,0.939-5.757,1.407-8.635
	c-0.063-0.015-0.127-0.027-0.189-0.041c-1.854,3.401-3.037,7.029-3.739,10.835c-0.198-3.932-1.545-7.523-3.088-11.065
	c-0.005,4.758-0.061,9.494-0.505,14.224c-2.438-4.074-2.01-8.503-1.686-12.939c-1.151,1.263-2.539,5.301-3.556,10.247
	c-0.027-0.895-0.053-1.785-0.023-2.675c0.218-6.3,1.265-12.466,3.206-18.478c-4.462,5.883-6.733,12.526-7.06,19.857
	c-0.465-4.051-1.505-7.952-2.702-11.825c-0.004,1.138,0.075,2.266,0.113,3.392c0.039,1.132,0.065,2.258,0.042,3.39
	c-0.023,1.132-0.081,2.265-0.187,3.392c-0.107,1.119-0.26,2.242-0.451,3.358c-0.187,1.077-0.448,2.14-0.674,3.208
	c-0.052-0.004-0.102-0.009-0.154-0.013c0.256-4.156-1.12-7.94-2.597-11.704c0.007,3.64-0.262,7.239-1.085,10.793
	c-1.748-6.258-0.889-12.526-0.141-18.82c-1.77,2.478-3.338,5.047-4.58,7.81c-1.247,2.783-2.136,5.664-2.472,8.705
	c-0.199-6.243,0.692-12.347,2.476-18.356c-0.235,0.134-0.42,0.292-0.584,0.471c-1.306,1.399-2.092,3.1-2.732,4.867
	c-1.456,3.999-2.492,8.104-3.31,12.279c0.044-1.289,0.151-2.566,0.193-3.851c0.04-1.296,0.05-2.586,0.007-3.881
	c-0.044-1.317-0.129-2.629-0.269-3.938c-0.136-1.282-0.324-2.563-0.559-3.835c-0.228-1.229-0.537-2.436-0.809-3.657
	c1.043,7.47-0.402,14.358-4.587,20.663c0.116-1.319,0.297-2.634,0.583-3.927c0.293-1.324,0.646-2.645,1.051-3.938
	c0.385-1.248,0.871-2.467,1.311-3.696c-2.62,3.431-4.346,7.269-5.447,11.384c0.107-2.713,0.214-5.429,0.321-8.142
	c-0.042-0.001-0.082-0.003-0.124-0.005c-0.722,2.728-1.448,5.454-2.172,8.18c-0.069-0.013-0.139-0.027-0.206-0.042
	c1.167-7.417,0.223-14.537-2.979-21.343c-0.055,0.096-0.055,0.187-0.026,0.27c1.896,5.511,1.509,10.89-0.931,16.164
	c-0.842,1.817-1.644,3.655-1.857,5.692c-0.881-2.309-1.15-4.698-1.078-7.149c-0.07-0.009-0.142-0.018-0.212-0.026
	c-0.335,1.469-0.667,2.931-1.009,4.435c-0.404-5.917,0.249-11.708,1.62-17.441c-3.799,6.237-4.87,13.213-5.575,20.302
	c-0.662-1.851-1.012-3.751-1.188-5.668c-0.172-1.905-0.249-3.822-0.296-5.737c-0.049-1.905-0.011-3.813-0.011-5.599
	c-0.845,4.038-1.248,8.259-1.445,12.508c-0.316-2.666-1.059-5.181-2.339-7.456c0.383,2.17,0.826,4.381,1.156,6.608
	c0.386,2.568,0.27,6.023-0.138,6.73c-0.29-1.799-0.843-3.492-1.796-5.158c-0.071,0.947-0.132,1.759-0.193,2.568
	c-0.051-0.001-0.103-0.003-0.153-0.004c-0.047-0.598-0.089-1.189-0.142-1.78c-0.146-1.625-0.444-3.206-1.269-4.641
	c-0.446-0.786-1.018-1.453-1.911-1.959c0.665,3.036,0.778,5.966,0.119,9.026c-0.51-3.575-1.002-7.011-1.493-10.45
	c-0.069-0.002-0.139-0.004-0.208-0.005c-0.765,3.326-1.533,6.654-2.3,9.984c-0.113,0.14-0.223,0.276-0.333,0.411
	c-0.262-1.152-0.61-2.173-1.035-3.013c0.024-0.476,0.048-0.95,0.072-1.423c-0.149,0.271-0.295,0.521-0.441,0.77
	c-0.334-0.527-0.703-0.966-1.108-1.277c0.062,1.032,0.051,2.045-0.036,3.044c-0.782,1.064-1.507,1.74-2.175,2.027
	c-0.026-0.084-0.055-0.168-0.082-0.252c0.611-2.054,1.221-4.112,1.834-6.18c-0.055-0.026-0.112-0.053-0.169-0.079
	c-1.147,0.812-2.097,1.802-2.927,2.899c-0.564-1.295-1.213-2.556-1.953-3.782c-0.11-1.649-0.217-3.27-0.321-4.819
	c-0.624,4.197-2.149,8.38-4.731,12.167c-0.747-4.004,1.034-7.314,3.052-10.722c-2.943,1.559-4.901,3.793-6.307,6.573
	c0.802-3.664,1.604-7.332,2.405-10.997c-0.058-0.021-0.117-0.043-0.177-0.064c-0.761,1.399-1.525,2.795-2.288,4.195
	c0.023-2.322-0.167-4.575-0.878-6.774c0.219,2.744-0.022,5.441-0.75,8.089c-0.729,2.663-1.885,5.118-3.619,7.301
	c0.458-6.274,1.695-12.386,3.464-18.417c-1.957,1.442-3.484,3.223-4.702,5.267c-1.208,2.041-1.993,4.24-2.577,6.541
	c0.142-3.515,0.282-7.022,0.421-10.53c-0.023-0.004-0.046-0.006-0.07-0.011c-1.111,5.378-2.219,10.753-3.331,16.137
	c-0.052-0.005-0.104-0.01-0.156-0.014c-0.554-4.531-1.515-8.961-3-13.288c-0.155,2.699-0.241,5.363-0.476,8.013
	c-0.238,2.675-0.738,5.319-1.578,7.895c-0.307-5.674-0.615-11.349-0.923-17.022c-0.58,7.131-4.046,13.121-7.659,19.062
	c-0.284-8.035,1.585-15.55,5.448-22.603c-1.474,1.816-2.892,3.644-4.271,5.505c-2.484,3.354-5.36,6.479-6.558,10.627
	c0.443-4.813,1.954-9.287,4.373-13.471c-1.611,1.354-2.921,2.937-4.019,4.696c-1.101,1.765-1.922,3.655-2.607,5.633
	c0.04-4.614-0.349-9.162-1.51-13.629c-0.077,6.641-0.961,13.155-2.757,19.584c0.056-3.115,0.155-6.184,0.149-9.249
	c-0.004-2.406-0.551-7.619-1.053-9.117c0.427,6.687-0.7,13.074-3.496,19.257c-0.425-0.397-0.915-0.539-0.911-1.166
	c0.022-3.398-0.243-6.785-0.824-10.133c-0.316-1.834-0.716-3.659-1.082-5.484c-0.055,0.003-0.111,0.008-0.167,0.012
	c1.011,7.132-1.304,13.645-3.696,20.297c0.379-5.812,0.745-11.467,1.111-17.122c-0.087-0.014-0.171-0.027-0.257-0.04
	c-0.522,1.739-1.075,3.472-1.56,5.229c-0.478,1.732-0.913,3.48-1.323,5.229c-0.404,1.738-0.755,3.487-1.126,5.237
	c-0.217-8.029-2.719-15.488-5.376-22.915c1.607,7.107,1.321,14.111-1.103,20.999c-0.311-5.346,0.158-10.625,1.25-15.871
	c-2.59,4.046-4.621,8.346-6.348,12.823c0.165-2.28,0.364-4.531,0.741-6.759c0.373-2.221,0.923-4.405,1.431-6.785
	c-1.605,2.384-2.81,4.763-3.767,7.271c-0.959,2.519-1.589,5.114-2.036,7.77c-0.064-3.662-0.364-7.29-1.057-10.878
	c-0.689-3.568-1.681-7.043-3.125-10.385c0.897,3.566,0.835,7.136,0.146,10.715c-0.664,3.445-2.547,9.364-3.253,10.242
	c0.533-4.967,0.835-9.933,0.759-14.928c-2.13,4.453-3.591,9.112-4.633,13.916c-0.246-3.521,0.225-6.952,1.117-10.354
	c-2.668,3.193-4.397,6.823-5.282,10.86c-0.061-0.012-0.121-0.021-0.18-0.034c0.412-3.682,0.827-7.364,1.244-11.097
	c-1.619,3.935-2.623,7.978-3.267,12.159c-0.258-0.72-0.462-1.447-0.532-2.183c-0.434-4.595-1.445-9.06-3.037-13.398
	c-0.529-1.441-1.139-2.86-1.716-4.284c-0.062,0.015-0.125,0.029-0.185,0.042c1.421,6.469,1.357,12.896-0.32,19.285
	c-0.057,0-0.112,0.003-0.169,0.003c-0.682-4.321-1.367-8.638-2.048-12.959c-0.122,5.577-1.26,10.904-3.802,15.916
	c0.307-3.625,0.61-7.248,0.916-10.873c-2.335,3.154-3.716,6.667-4.54,10.422c0.221-4.678-0.104-9.301-0.971-13.883
	c-0.056-0.002-0.111-0.002-0.167-0.003c-0.905,4.387-1.81,8.773-2.716,13.166c-0.044-0.007-0.09-0.014-0.134-0.021
	c-0.944-4.787-1.887-9.575-2.831-14.363c-0.454,5.324-0.729,10.647-1.737,15.906c-0.831-2.26-1.404-4.579-1.648-6.962
	c-0.244-2.384-0.347-4.788-0.509-7.106c-0.967,3.166-1.855,6.411-2.849,9.662C370.004,19.84,370,19.833,370,19.825
	c0-0.22,0-0.44,0-0.66c0-5.874,0.806-11.62,2.365-17.283c-3.826,5.582-6.525,11.675-8.115,18.234
	c-0.05-0.015-0.125-0.028-0.175-0.042c0.375-3.398,0.738-6.797,1.114-10.202c-1.97,4.282-3.292,8.752-4.26,13.344
	c0.23-3.124,0.06-6.213-0.433-9.297c-0.494-3.08-1.337-6.053-2.636-8.909c0.185,5.949-0.674,11.714-2.757,17.458
	c-1.138-2.993-1.455-5.907-1.094-8.906c-0.072-0.019-0.145-0.036-0.217-0.055c-0.853,2.463-1.706,4.916-2.602,7.498
	c0.187-5.998,1.565-11.595,3.983-16.967c-1.629,1.609-2.842,3.48-3.808,5.518c-1.404,2.957-2.24,6.101-2.931,9.288
	c-0.098,0.446-0.184,0.903-0.282,1.351c-0.092,0.424-0.553,0.84-0.652,1.262C347.453,21.45,347,21.444,347,21.438
	c0-2.238,0-4.469,0-6.707c0-0.004,0.229-0.009,0.166-0.013c-0.231,2.596-0.584,5.107-1.881,7.402
	c0.166-4.897-0.221-9.703-1.501-14.432c-0.687,5.222-1.983,10.233-4.406,14.935c0.02-4.282,0.572-8.495,1.281-12.729
	c-0.31,0.258-0.596,0.526-0.756,0.855c-0.279,0.582-0.529,1.184-0.687,1.802c-0.683,2.713-1.322,5.43-1.984,8.143
	c-0.134,0.55-0.285,1.104-0.429,1.653c-0.041-0.007-0.081-0.015-0.122-0.021c-0.761-3.957-1.52-7.914-2.28-11.863
	c-0.053,2.485-0.264,4.937-0.808,7.356c-0.539,2.392-1.323,4.703-2.551,6.851c-0.313-4.021,0.175-7.942,1.311-11.794
	c-0.067-0.018-0.132-0.038-0.199-0.059c-0.854,2.055-1.708,4.107-2.634,6.327c0.112-3.237-0.113-6.282-0.652-9.307
	c-0.573-3.213-1.988-7.897-2.683-8.73c1.195,6.771,0.925,13.429-1.048,19.997c0.104-2.934,0.208-5.864,0.313-8.799
	c-1.641,2.507-2.842,5.209-3.956,7.946c0.469-2.879,0.938-5.757,1.408-8.635c-0.063-0.015-0.126-0.027-0.188-0.041
	c-1.854,3.401-3.039,7.029-3.74,10.835c-0.197-3.932-1.547-7.523-3.088-11.065c-0.005,4.758-0.062,9.494-0.508,14.224
	c-2.437-4.074-2.008-8.503-1.685-12.939c-1.151,1.263-2.537,5.301-3.554,10.247c-0.028-0.895-0.055-1.785-0.023-2.675
	c0.219-6.3,1.265-12.466,3.205-18.478c-4.462,5.883-6.733,12.526-7.061,19.857c-0.465-4.051-1.505-7.952-2.7-11.825
	c-0.004,1.138,0.075,2.266,0.112,3.392c0.038,1.132,0.064,2.258,0.042,3.39c-0.023,1.132-0.079,2.265-0.186,3.392
	c-0.107,1.119-0.262,2.242-0.454,3.358c-0.186,1.077-0.446,2.14-0.673,3.208c-0.051-0.004-0.104-0.009-0.154-0.013
	c0.258-4.156-1.121-7.94-2.596-11.704c0.007,3.64-0.265,7.239-1.086,10.793c-1.746-6.258-0.888-12.526-0.142-18.82
	c-1.769,2.478-3.337,5.047-4.578,7.81c-1.25,2.783-2.138,5.664-2.474,8.705c-0.197-6.243,0.695-12.347,2.479-18.356
	c-0.237,0.134-0.422,0.292-0.587,0.471c-1.303,1.399-2.089,3.1-2.731,4.867c-1.454,3.999-2.492,8.104-3.309,12.279
	c0.044-1.289,0.151-2.566,0.191-3.851c0.041-1.296,0.051-2.586,0.007-3.881c-0.043-1.317-0.129-2.629-0.267-3.938
	c-0.138-1.282-0.328-2.563-0.561-3.835c-0.225-1.229-0.537-2.436-0.808-3.657c1.042,7.47-0.399,14.358-4.588,20.663
	c0.118-1.319,0.299-2.634,0.583-3.927c0.293-1.324,0.647-2.645,1.05-3.938c0.386-1.248,0.87-2.467,1.311-3.696
	c-2.617,3.431-4.346,7.269-5.444,11.384c0.105-2.713,0.211-5.429,0.318-8.142c-0.042-0.001-0.083-0.003-0.124-0.005
	c-0.723,2.728-1.447,5.454-2.169,8.18c-0.069-0.013-0.138-0.027-0.208-0.042c1.17-7.417,0.226-14.537-2.979-21.343
	c-0.053,0.096-0.053,0.187-0.026,0.27c1.896,5.511,1.509,10.89-0.931,16.164c-0.842,1.817-1.643,3.655-1.857,5.692
	c-0.88-2.309-1.151-4.698-1.077-7.149c-0.071-0.009-0.142-0.018-0.213-0.026c-0.334,1.469-0.668,2.931-1.01,4.435
	c-0.401-5.917,0.25-11.708,1.623-17.441c-3.799,6.237-4.871,13.213-5.577,20.302c-0.663-1.851-1.012-3.751-1.186-5.668
	c-0.174-1.905-0.25-3.822-0.299-5.737c-0.048-1.905-0.011-3.813-0.011-5.599c-0.844,4.038-1.248,8.259-1.444,12.508
	c-0.317-2.666-1.059-5.181-2.34-7.456c0.383,2.17,0.825,4.381,1.158,6.608c0.259,1.736,0.29,3.873,0.157,5.297
	c-0.16,0.198-0.313,0.389-0.47,0.582c-0.097-0.454-0.213-0.903-0.35-1.348c0.003-0.021,0.007-0.044,0.01-0.065
	c0.097-0.707,0.153-1.421,0.205-2.133c0.049-0.685,0.07-1.365,0.104-2.045c-0.42,0.762-0.827,1.425-1.221,2.009
	c-0.121-0.241-0.232-0.483-0.37-0.725c-0.038,0.496-0.073,0.952-0.107,1.393c-0.102,0.136-0.204,0.266-0.304,0.388
	c-0.025-0.331-0.049-0.666-0.079-0.996c-0.074-0.817-0.186-1.621-0.383-2.403c0.152-0.512,0.303-1.021,0.456-1.533
	c-0.058-0.026-0.115-0.053-0.173-0.079c-0.224,0.158-0.42,0.341-0.631,0.512c-0.148-0.388-0.324-0.767-0.536-1.137
	c-0.449-0.786-1.018-1.453-1.912-1.959c0.366,1.674,0.557,3.314,0.551,4.962c-0.298,0.361-0.588,0.73-0.854,1.119
	c-0.362-2.529-0.719-5.026-1.073-7.505c-0.069-0.002-0.138-0.004-0.208-0.005c-0.109,0.476-0.219,0.953-0.329,1.43
	c-0.071-1.06-0.14-2.106-0.208-3.119c-0.47,3.163-1.453,6.317-3.013,9.301c-0.409-0.869-0.896-1.556-1.448-2.026
	c0.576-2.007,1.64-3.902,2.781-5.829c-2.943,1.559-4.901,3.793-6.305,6.573c0.802-3.664,1.603-7.332,2.404-10.997
	c-0.059-0.021-0.118-0.043-0.177-0.064c-0.761,1.399-1.524,2.795-2.286,4.195c0.022-2.322-0.17-4.575-0.879-6.774
	c0.218,2.744-0.022,5.441-0.751,8.089c-0.73,2.663-1.885,5.118-3.619,7.301c0.459-6.274,1.696-12.386,3.465-18.417
	c-1.957,1.442-3.487,3.223-4.702,5.267c-1.208,2.041-1.993,4.24-2.578,6.541c0.14-3.515,0.282-7.022,0.424-10.53
	c-0.024-0.004-0.048-0.006-0.072-0.011c-1.112,5.378-2.221,10.753-3.332,16.137c-0.052-0.005-0.104-0.01-0.156-0.014
	c-0.556-4.531-1.517-8.961-2.999-13.288c-0.154,2.699-0.242,5.363-0.479,8.013c-0.236,2.675-0.736,5.319-1.575,7.895
	c-0.309-5.674-0.616-11.349-0.924-17.022c-0.583,7.131-4.049,13.121-7.659,19.062c-0.286-8.035,1.582-15.55,5.447-22.603
	c-1.473,1.816-2.894,3.644-4.271,5.505c-2.484,3.354-5.362,6.479-6.557,10.627c0.443-4.813,1.954-9.287,4.374-13.471
	c-1.613,1.354-2.922,2.937-4.021,4.696c-1.101,1.765-1.921,3.655-2.603,5.633c0.039-4.614-0.353-9.162-1.512-13.629
	c-0.077,6.641-0.962,13.155-2.758,19.584c0.055-3.115,0.155-6.184,0.149-9.249c-0.005-2.406-0.55-7.619-1.053-9.117
	c0.429,6.687-0.697,13.074-3.493,19.257c-0.428-0.397-0.915-0.539-0.912-1.166c0.022-3.398-0.246-6.785-0.827-10.133
	c-0.315-1.834-0.716-3.659-1.079-5.484c-0.056,0.003-0.112,0.008-0.168,0.012c1.012,7.132-1.305,13.645-3.694,20.297
	c0.376-5.812,0.742-11.467,1.108-17.122c-0.085-0.014-0.171-0.027-0.256-0.04c-0.523,1.739-1.077,3.472-1.561,5.229
	c-0.479,1.732-0.913,3.48-1.322,5.229c-0.405,1.738-0.755,3.487-1.129,5.237c-0.216-8.029-2.717-15.488-5.375-22.915
	c1.607,7.107,1.32,14.111-1.101,20.999c-0.315-5.346,0.156-10.625,1.248-15.871c-2.592,4.046-4.621,8.346-6.349,12.823
	c0.166-2.28,0.367-4.531,0.742-6.759c0.374-2.221,0.922-4.405,1.432-6.785c-1.606,2.384-2.809,4.763-3.766,7.271
	c-0.959,2.519-1.591,5.114-2.039,7.77c-0.063-3.662-0.365-7.29-1.058-10.878c-0.687-3.568-1.679-7.043-3.124-10.385
	c0.897,3.566,0.834,7.136,0.145,10.715c-0.661,3.445-2.543,9.364-3.252,10.242c0.534-4.967,0.837-9.933,0.762-14.928
	c-2.131,4.453-3.592,9.112-4.635,13.916c-0.244-3.521,0.225-6.952,1.118-10.354c-2.671,3.193-4.397,6.823-5.283,10.86
	c-0.061-0.012-0.122-0.021-0.182-0.034c0.413-3.682,0.828-7.364,1.248-11.097c-1.62,3.935-2.624,7.978-3.27,12.159
	c-0.255-0.72-0.459-1.447-0.528-2.183c-0.438-4.595-1.448-9.06-3.039-13.398c-0.53-1.441-1.142-2.86-1.715-4.284
	c-0.061,0.015-0.123,0.029-0.186,0.042c1.422,6.469,1.357,12.896-0.321,19.285c-0.056,0-0.112,0.003-0.168,0.003
	c-0.685-4.321-1.365-8.638-2.049-12.959c-0.121,5.577-1.259,10.904-3.802,15.916c0.305-3.625,0.611-7.248,0.916-10.873
	c-2.336,3.154-3.716,6.667-4.54,10.422c0.219-4.678-0.104-9.301-0.971-13.883c-0.055-0.002-0.111-0.002-0.167-0.003
	c-0.905,4.387-1.811,8.773-2.715,13.166c-0.045-0.007-0.09-0.014-0.136-0.021c-0.943-4.787-1.886-9.575-2.83-14.363
	c-0.453,5.324-0.732,10.647-1.739,15.906c-0.833-2.26-1.401-4.579-1.646-6.962c-0.246-2.384-0.348-4.788-0.509-7.106
	c-0.967,3.166-1.763,6.411-2.757,9.662C130.91,19.84,131,19.833,131,19.825c0-0.22,0-0.44,0-0.66c0-5.874,0.715-11.62,2.268-17.283
	c-3.825,5.582-6.568,11.675-8.159,18.234c-0.051-0.015-0.149-0.028-0.198-0.042c0.377-3.398,0.728-6.797,1.102-10.202
	c-1.971,4.282-3.298,8.752-4.267,13.344c0.231-3.124,0.058-6.213-0.436-9.297c-0.493-3.08-1.337-6.053-2.637-8.909
	c0.186,5.949-0.673,11.714-2.758,17.458c-1.137-2.993-1.455-5.907-1.093-8.906c-0.071-0.019-0.144-0.036-0.217-0.055
	c-0.852,2.463-1.706,4.916-2.603,7.498c0.188-5.998,1.566-11.595,3.984-16.967c-1.629,1.609-2.842,3.48-3.808,5.518
	c-1.404,2.957-2.239,6.101-2.931,9.288c-0.098,0.446-0.183,0.903-0.28,1.351c-0.093,0.424,0.038,0.84-0.061,1.262
	C108.859,21.45,109,21.444,109,21.438c0-2.238,0-4.469,0-6.707c0-0.004-0.364-0.009-0.428-0.013
	c-0.231,2.596-0.879,5.107-2.179,7.402c0.168-4.897-0.369-9.703-1.648-14.432c-0.687,5.222-2.057,10.233-4.48,14.935
	c0.02-4.282,0.536-8.495,1.244-12.729c-0.31,0.258-0.615,0.526-0.774,0.855c-0.279,0.582-0.539,1.184-0.696,1.802
	c-0.681,2.713-1.327,5.43-1.989,8.143c-0.133,0.55-0.287,1.104-0.431,1.653c-0.04-0.007-0.082-0.015-0.121-0.021
	c-0.763-3.957-1.521-7.914-2.284-11.863c-0.052,2.485-0.262,4.937-0.807,7.356c-0.54,2.392-1.323,4.703-2.552,6.851
	c-0.313-4.021,0.175-7.942,1.313-11.794c-0.067-0.018-0.134-0.038-0.201-0.059c-0.853,2.055-1.707,4.107-2.633,6.327
	c0.112-3.237-0.113-6.282-0.651-9.307c-0.574-3.213-1.988-7.897-2.685-8.73c1.196,6.771,0.927,13.429-1.046,19.997
	c0.103-2.934,0.207-5.864,0.312-8.799c-1.641,2.507-2.842,5.209-3.957,7.946c0.469-2.879,0.938-5.757,1.408-8.635
	c-0.062-0.015-0.124-0.027-0.188-0.041c-1.852,3.401-3.039,7.029-3.74,10.835c-0.197-3.932-1.546-7.523-3.089-11.065
	c-0.004,4.758-0.062,9.494-0.507,14.224c-2.437-4.074-2.009-8.503-1.684-12.939c-1.151,1.263-2.536,5.301-3.554,10.247
	c-0.028-0.895-0.055-1.785-0.024-2.675c0.22-6.3,1.263-12.466,3.204-18.478c-4.46,5.883-6.733,12.526-7.059,19.857
	c-0.466-4.051-1.506-7.952-2.7-11.825c-0.004,1.138,0.076,2.266,0.111,3.392c0.039,1.132,0.065,2.258,0.042,3.39
	c-0.023,1.132-0.078,2.265-0.185,3.392c-0.107,1.119-0.263,2.242-0.454,3.358c-0.187,1.077-0.444,2.14-0.674,3.208
	c-0.052-0.004-0.104-0.009-0.155-0.013c0.258-4.156-1.119-7.94-2.594-11.704c0.007,3.64-0.266,7.239-1.087,10.793
	c-1.746-6.258-0.887-12.526-0.143-18.82c-1.768,2.478-3.336,5.047-4.577,7.81c-1.249,2.783-2.14,5.664-2.475,8.705
	C51.989,17.023,52.88,10.92,54.663,4.91c-0.237,0.134-0.421,0.292-0.587,0.471c-1.302,1.399-2.088,3.1-2.731,4.867
	c-1.454,3.999-2.492,8.104-3.308,12.279c0.044-1.289,0.149-2.566,0.189-3.851c0.041-1.296,0.051-2.586,0.008-3.881
	c-0.043-1.317-0.127-2.629-0.267-3.938c-0.137-1.282-0.326-2.563-0.561-3.835c-0.223-1.229-0.536-2.436-0.808-3.657
	c1.043,7.47-0.399,14.358-4.588,20.663c0.118-1.319,0.3-2.634,0.584-3.927c0.294-1.324,0.647-2.645,1.05-3.938
	c0.386-1.248,0.87-2.467,1.311-3.696c-2.616,3.431-4.346,7.269-5.443,11.384c0.104-2.713,0.211-5.429,0.318-8.142
	c-0.042-0.001-0.082-0.003-0.123-0.005c-0.723,2.728-1.448,5.454-2.17,8.18c-0.068-0.013-0.138-0.027-0.208-0.042
	c1.17-7.417,0.227-14.537-2.98-21.343c-0.054,0.096-0.054,0.187-0.026,0.27c1.895,5.511,1.509,10.89-0.931,16.164
	c-0.841,1.817-1.642,3.655-1.856,5.692c-0.88-2.309-1.149-4.698-1.079-7.149c-0.068-0.009-0.14-0.018-0.212-0.026
	c-0.332,1.469-0.668,2.931-1.009,4.435c-0.4-5.917,0.249-11.708,1.624-17.441c-3.799,6.237-4.872,13.213-5.579,20.302
	c-0.661-1.851-1.012-3.751-1.185-5.668c-0.175-1.905-0.25-3.822-0.299-5.737c-0.049-1.905-0.011-3.813-0.011-5.599
	c-0.843,4.038-1.247,8.259-1.445,12.508c-0.315-2.666-1.056-5.181-2.339-7.456c0.383,2.17,0.827,4.381,1.159,6.608
	c0.383,2.568,0.268,6.023-0.14,6.73c-0.29-1.799-0.841-3.492-1.794-5.158c-0.072,0.947-0.134,1.759-0.196,2.568
	c-0.051-0.001-0.102-0.003-0.152-0.004c-0.047-0.598-0.088-1.189-0.143-1.78c-0.146-1.625-0.442-3.206-1.265-4.641
	c-0.451-0.786-1.019-1.453-1.912-1.959c0.662,3.036,0.777,5.966,0.116,9.026c-0.511-3.575-1.002-7.011-1.495-10.45
	c-0.066-0.002-0.136-0.004-0.206-0.005c-0.837,3.637-1.678,7.274-2.515,10.918c-0.507-2.553-1.419-4.537-2.628-5.466
	c0.172,2.893-0.202,5.649-1.338,8.292c-0.891-3.884-2.263-7.548-4.367-10.944c0.403,3.592,0.26,7.152-0.425,10.704
	c-0.357-0.74-0.671-1.487-0.873-2.26c-0.202-0.784-0.292-1.598-0.444-2.458c-1.2,1.566-1.722,5.074-1.15,7.485
	c79.739,0,159.479,0,239.185,0c8.605,0,17.214,0,25.818,0c74.614,0,149.227,0,223.805,0c5.126,0,10.256,0,15.382,0
	c74.614,0,149.224,0,223.805,0c8.605,0,17.214,0,25.818,0c61.586,0,123.167,0,184.733,0c18.151,0,36.306,0,54.452,0
	c61.588,0,123.17,0,184.733,0c8.604,0,17.214,0,25.818,0c70.688,0,141.369,0,212.026,0c9.052,0,18.109,0,27.16,0
	c70.688,0,141.37,0,212.027,0c8.604,0,17.215,0,25.818,0c79.742,0,159.485,0,239.186,0
	C1919.743,28.827,1919.496,27.694,1919.259,26.61z M248.036,19.791c0.042,1.301-0.028,2.574-0.235,3.822
	C247.63,22.273,247.738,21.01,248.036,19.791z M736.845,19.792c0.043,1.301-0.027,2.573-0.235,3.822
	C736.44,22.274,736.547,21.011,736.845,19.792z M941.676,16.604c0.043,0.397,0.058,0.793,0.088,1.189
	c-0.146,0.386-0.291,0.771-0.407,1.174C941.431,18.169,941.544,17.383,941.676,16.604z M1186.583,19.792
	c0.042,1.301-0.028,2.573-0.235,3.821C1186.178,22.274,1186.285,21.011,1186.583,19.792z M1663.615,19.792
	c0.043,1.3-0.028,2.573-0.235,3.821C1663.21,22.274,1663.317,21.011,1663.615,19.792z"/>
</svg>
