<?xml version="1.0" encoding="utf-8"?>
<!-- Generator: Adobe Illustrator 16.0.0, SVG Export Plug-In . SVG Version: 6.00 Build 0)  -->
<!DOCTYPE svg PUBLIC "-//W3C//DTD SVG 1.1//EN" "http://www.w3.org/Graphics/SVG/1.1/DTD/svg11.dtd">
<svg version="1.1" id="Layer_3" xmlns="http://www.w3.org/2000/svg" xmlns:xlink="http://www.w3.org/1999/xlink" x="0px" y="0px"
	 width="720px" height="234px" viewBox="0 0 720 234" enable-background="new 0 0 720 234" xml:space="preserve">
<g fill="#fff">
	<g>
		<g >
			<path d="M23.173,218.703v-6.983l4.69-0.614v-33.154l-4.506-0.86v-7.148h11.476c0.632,0,1.873-0.039,3.708-0.121
				c2.326-0.16,4.514-0.248,6.464-0.248c4.64,0,8.223,0.565,10.954,1.72c2.838,1.202,4.9,2.979,6.125,5.277
				c1.173,2.208,1.77,4.988,1.77,8.26c0,5.676-1.77,10.173-5.258,13.374c-3.446,3.167-8.349,4.77-14.567,4.77
				c-1.017,0-1.895-0.019-2.657-0.053v8.06l8.039,0.675v7.046H23.173z M41.313,195.657c0.583,0.052,1.38,0.087,2.475,0.087
				c2.736,0,6.372-1.104,6.372-10.667c0-3.002-0.543-5.176-1.613-6.464c-1.019-1.213-2.578-1.806-4.759-1.806
				c-1.061,0-1.881,0.045-2.437,0.131l-0.038,0.009V195.657z"/>
			<path d="M65.9,218.703v-6.958l3.717-0.554v-20.599l-3.593-1.105v-7.313l11.555-1.54h0.798l2.734,2.066v2.189
				c0.99-1.023,2.163-1.937,3.5-2.722c1.792-1.06,3.766-1.597,5.86-1.597c1.304,0,2.329,0.192,3.126,0.596l0.857,0.43v14.766
				l-2.47-1.868c-0.528-0.398-1.107-0.721-1.724-0.955c-0.574-0.219-1.363-0.33-2.344-0.33c-1.298,0-2.468,0.168-3.484,0.503
				c-0.675,0.225-1.256,0.465-1.737,0.72v16.682l6.706,0.615v6.974H65.9z"/>
			<path d="M112.9,219.377c-5.494,0-9.898-1.726-13.094-5.125c-3.168-3.372-4.776-8.086-4.776-14.005
				c0-4.184,0.846-7.802,2.519-10.755c1.679-2.971,3.997-5.234,6.878-6.727c2.834-1.458,5.969-2.196,9.324-2.196
				c5.537,0,9.961,1.725,13.157,5.127c3.168,3.378,4.777,8.088,4.777,14c0,4.32-0.849,7.989-2.52,10.915
				c-1.696,2.962-4.002,5.192-6.861,6.637C119.501,218.661,116.339,219.377,112.9,219.377z M113.326,187.988
				c-3.653,0-4.422,6.266-4.422,11.521c0,4.523,0.45,7.873,1.334,9.956c0.94,2.21,2.246,2.499,3.273,2.499
				c0.897,0,2.042-0.259,2.952-2.26c0.853-1.898,1.289-5.019,1.289-9.268c0-4.569-0.421-7.94-1.257-10.012
				C115.625,188.266,114.344,187.988,113.326,187.988z"/>
			<path d="M130.966,233.567v-6.625l3.716-0.799v-35.542l-3.716-1.103v-7.336l12.355-1.529h0.623l0.54,0.326l2.245,1.755v0.457
				c0.508-0.367,1.057-0.707,1.644-1.028c1.908-1.043,4.012-1.574,6.251-1.574c4.335,0,7.932,1.568,10.688,4.666
				c2.704,3.045,4.075,7.665,4.075,13.724c0,3.634-0.758,7.028-2.259,10.086c-1.525,3.122-3.805,5.648-6.779,7.515
				c-2.982,1.869-6.592,2.817-10.722,2.817c-0.685,0-1.429-0.064-2.215-0.185l0.106,2.927l0.005,3.943l5.236,0.8v6.705H130.966z
				 M147.522,211.736c0.106,0.056,0.256,0.122,0.446,0.189c0.54,0.183,1.16,0.281,1.845,0.281c1.742,0,3.054-0.821,4.142-2.582
				c1.197-1.947,1.805-5.29,1.805-9.928c0-3.714-0.5-6.468-1.495-8.185c-1.126-1.95-2.384-2.175-3.234-2.175
				c-0.83,0-1.617,0.17-2.342,0.505c-0.488,0.223-0.879,0.473-1.166,0.741V211.736z"/>
			<path d="M188.917,219.377c-6.012,0-10.563-1.789-13.538-5.308c-2.917-3.458-4.397-8.167-4.397-14.007
				c0-3.954,0.758-7.434,2.253-10.355c1.511-2.968,3.675-5.26,6.433-6.82c2.722-1.538,5.94-2.318,9.557-2.318
				c4.653,0,8.305,1.242,10.847,3.687c2.551,2.464,3.887,5.932,3.981,10.313c0,2.747-0.198,4.994-0.588,6.707l-0.277,1.208h-18.603
				c0.318,2.33,0.997,4.142,2.024,5.408c1.188,1.458,2.839,2.166,5.053,2.166c1.341,0,2.775-0.235,4.265-0.698
				c1.508-0.472,2.729-1.001,3.613-1.574l1.5-0.966l2.866,6.305l-0.676,0.759c-1.228,1.378-3.168,2.614-5.95,3.779
				C194.565,218.799,191.752,219.377,188.917,219.377z M191.311,195.313l0.024-1.059c0-2.273-0.29-4.018-0.866-5.154
				c-0.299-0.579-0.788-1.178-2.155-1.178c-1.185,0-2.001,0.469-2.656,1.518c-0.469,0.753-1.036,2.375-1.226,5.874H191.311z"/>
			<path d="M207.007,218.703v-6.958l3.721-0.554v-20.6l-3.594-1.105v-7.313l11.556-1.54h0.796l2.74,2.065v2.187
				c0.982-1.019,2.156-1.932,3.494-2.718c1.792-1.062,3.766-1.599,5.861-1.599c1.308,0,2.329,0.192,3.129,0.596l0.859,0.43v14.757
				l-2.473-1.858c-0.525-0.398-1.107-0.722-1.727-0.956c-0.572-0.219-1.362-0.329-2.342-0.329c-1.295,0-2.467,0.168-3.484,0.504
				c-0.671,0.224-1.254,0.464-1.734,0.718v16.683l6.703,0.615v6.974H207.007z"/>
			<path d="M251.361,219.254c-3.086,0-5.449-0.779-7.017-2.312c-1.587-1.551-2.391-3.882-2.391-6.924v-20.309h-3.715v-6.18
				l2.192-0.882c0.861-0.289,1.588-0.58,2.224-0.886c0.567-0.595,1.046-1.384,1.414-2.348c0.603-1.45,1.253-3.476,1.961-6.055
				l0.316-1.142h8.327l0.36,9.214h8.77v8.279h-8.581v14.719c0,2.182,0.054,3.701,0.165,4.519c0.052,0.39,0.119,0.607,0.161,0.719
				c0.131,0.035,0.414,0.08,0.93,0.08c1.71,0,3.351-0.292,4.864-0.879l1.509-0.578l2.128,6.428l-0.823,0.684
				c-1.302,1.078-3.13,1.975-5.579,2.741C256.204,218.879,253.777,219.254,251.361,219.254z"/>
			<path d="M276.991,234c-0.906,0-1.867-0.07-2.854-0.201c-1.122-0.151-1.906-0.356-2.472-0.643l-0.852-0.431v-11.34l2.435,1.737
				c0-0.001-0.001-0.001,0-0.001c0.006,0,0.298,0.139,1.237,0.324c0.824,0.162,1.58,0.247,2.262,0.247
				c1.64,0,2.883-0.481,3.801-1.472c0.755-0.814,1.486-1.993,2.182-3.518h-2.291l-11.491-29.752l-3.068-0.84v-6.68h21.061v6.803
				l-3.809,0.66l4.531,14.641l0.186,0.636l0.125-0.532l4.239-14.819l-3.245-0.6v-6.789h16.854v6.73l-3.262,0.757
				c-1.699,5.211-3.708,11.198-5.991,17.804c-3.32,9.632-3.96,11.337-4.153,11.784c-1.204,3.368-2.489,6.22-3.778,8.378
				c-1.355,2.268-2.982,4.027-4.838,5.235C281.886,233.365,279.597,234,276.991,234z"/>
		</g>
		<g>
			<path d="M336.14,219.377c-2.325,0-4.502-0.195-6.47-0.582c-1.938-0.381-3.984-0.885-6.084-1.504
				c-1.536-0.471-2.257-0.596-2.597-0.62l-1.509-0.102l0.689-14.497h8.415l1.672,8.632c0.249,0.181,0.708,0.441,1.541,0.726
				c1.04,0.353,2.315,0.534,3.795,0.534c2.076,0,3.612-0.429,4.554-1.27c0.9-0.803,1.338-1.908,1.338-3.378
				c0-1-0.281-1.837-0.854-2.562c-0.673-0.854-1.641-1.662-2.868-2.394c-1.333-0.806-3.222-1.759-5.603-2.838
				c-3.375-1.551-6.268-3.551-8.601-5.953c-2.498-2.559-3.763-5.956-3.763-10.092c0-2.58,0.671-4.967,2-7.095
				c1.334-2.129,3.356-3.853,6.008-5.122c2.595-1.241,5.832-1.868,9.617-1.868c2.224,0,4.214,0.152,5.902,0.449
				c1.65,0.297,3.426,0.699,5.277,1.199c1.161,0.385,1.708,0.486,1.978,0.507l1.477,0.11l-0.466,13.929h-8.322l-1.532-8.264
				c-0.17-0.086-0.472-0.22-0.964-0.374c-0.84-0.257-1.801-0.388-2.857-0.388c-1.82,0-3.154,0.395-3.971,1.175
				c-0.801,0.761-1.186,1.737-1.186,2.977c0,1.1,0.334,2.039,1.031,2.863c0.811,0.96,1.807,1.785,2.969,2.452
				c1.284,0.738,3.293,1.785,5.98,3.116c2.199,1.095,4.161,2.211,5.811,3.333c1.771,1.197,3.297,2.757,4.538,4.637
				c1.301,1.967,1.964,4.285,1.964,6.883c0,2.498-0.6,4.929-1.783,7.229c-1.225,2.364-3.295,4.342-6.163,5.881
				C344.293,218.612,340.602,219.377,336.14,219.377z"/>
			<path d="M374.719,219.377c-5.998,0-10.561-1.789-13.536-5.308c-2.91-3.453-4.389-8.162-4.389-14.007
				c0-3.956,0.755-7.439,2.245-10.355c1.512-2.968,3.681-5.259,6.432-6.82c2.726-1.538,5.941-2.318,9.557-2.318
				c4.661,0,8.313,1.242,10.846,3.688c2.557,2.463,3.895,5.933,3.979,10.314c0,2.794-0.184,4.977-0.575,6.704l-0.281,1.208h-18.604
				c0.312,2.325,0.996,4.139,2.025,5.411c1.184,1.455,2.833,2.163,5.053,2.163c1.344,0,2.774-0.235,4.262-0.698
				c1.521-0.473,2.731-1.001,3.605-1.573l1.506-0.969l2.866,6.307l-0.67,0.759c-1.229,1.379-3.177,2.615-5.946,3.779
				C380.379,218.799,377.566,219.377,374.719,219.377z M377.116,195.313l0.02-1.059c0-2.277-0.281-4.024-0.864-5.155
				c-0.288-0.577-0.788-1.178-2.154-1.178c-1.178,0-2,0.469-2.65,1.518c-0.469,0.753-1.031,2.374-1.229,5.874H377.116z"/>
			<path d="M392.817,218.703v-6.958l3.725-0.554v-20.599l-3.601-1.105v-7.313l11.559-1.54h0.797l2.737,2.065v2.187
				c0.974-1.015,2.145-1.929,3.479-2.717c1.815-1.063,3.787-1.599,5.882-1.599c1.293,0,2.314,0.192,3.123,0.595l0.861,0.428v14.765
				l-2.474-1.862c-0.528-0.397-1.104-0.721-1.725-0.956c-0.57-0.219-1.37-0.329-2.345-0.329c-1.299,0-2.471,0.168-3.487,0.504
				c-0.672,0.224-1.26,0.464-1.733,0.715v16.686l6.703,0.615v6.974H392.817z"/>
			<polygon points="438.936,219.193 426.767,188.93 423.995,188.072 423.995,181.43 444.386,181.43 444.386,188.21 441.008,188.858 
				445.562,203.313 450.056,188.852 446.783,188.202 446.783,181.43 463.938,181.43 463.938,188.16 460.389,188.985 
				449.217,219.193 			"/>
			<path d="M467.054,218.703v-6.962l3.785-0.551v-20.572l-4.092-1.171v-7.164l13.641-1.649h0.561l0.519,0.268l2.572,1.749v28.544
				l3.646,0.553v6.956H467.054z M476.093,179.262c-1.982,0-3.642-0.617-4.909-1.842c-1.279-1.248-1.938-2.845-1.938-4.751
				c0-2.135,0.692-3.931,2.063-5.331c1.359-1.407,3.204-2.125,5.46-2.125c2.224,0,4.002,0.618,5.269,1.846
				c1.29,1.244,1.941,2.845,1.941,4.749c0,2.18-0.708,3.989-2.107,5.379c-1.395,1.378-3.32,2.075-5.714,2.075H476.093z"/>
			<path d="M505.338,219.377c-5.779,0-10.188-1.792-13.124-5.318c-2.859-3.449-4.317-8.07-4.317-13.744
				c0-3.897,0.795-7.369,2.383-10.322c1.589-2.994,3.862-5.345,6.752-6.979c2.867-1.621,6.188-2.445,9.898-2.445
				c1.771,0,3.359,0.123,4.689,0.366c1.276,0.231,2.617,0.564,3.99,0.993c1.527,0.431,1.898,0.495,1.96,0.503l1.364,0.205
				l-0.524,14.013h-8.88l-1.858-8.279c-0.432-0.186-0.906-0.26-1.479-0.26c-1.342,0-2.345,0.65-3.139,2.046
				c-0.641,1.123-1.408,3.532-1.408,8.621c0,3.862,0.612,6.822,1.811,8.795c1.085,1.78,2.42,2.61,4.2,2.61
				c2.703,0,5.22-0.71,7.483-2.106l1.486-0.919l2.78,6.149l-0.664,0.76c-1.137,1.274-2.872,2.455-5.317,3.597
				C510.992,218.802,508.273,219.377,505.338,219.377z"/>
			<path d="M539.232,219.377c-6.012,0-10.563-1.789-13.54-5.308c-2.907-3.453-4.384-8.162-4.384-14.007
				c0-3.963,0.744-7.451,2.234-10.355c1.52-2.969,3.678-5.26,6.441-6.82c2.721-1.538,5.936-2.318,9.556-2.318
				c4.657,0,8.298,1.242,10.846,3.687c2.554,2.457,3.892,5.926,3.981,10.313c0,2.791-0.2,4.974-0.595,6.707l-0.27,1.208h-18.601
				c0.316,2.331,0.986,4.142,2.03,5.407c1.181,1.46,2.829,2.167,5.039,2.167c1.339,0,2.781-0.235,4.271-0.698
				c1.504-0.47,2.726-1,3.61-1.574l1.493-0.966l2.876,6.305l-0.684,0.76c-1.218,1.378-3.166,2.615-5.943,3.778
				C544.875,218.799,542.061,219.377,539.232,219.377z M541.629,195.313l0.022-1.06c0-2.273-0.297-4.018-0.868-5.151
				c-0.3-0.581-0.787-1.18-2.158-1.18c-1.183,0-1.996,0.469-2.66,1.519c-0.467,0.751-1.026,2.37-1.216,5.872H541.629z"/>
			<path d="M572.339,219.377c-2.258,0-4.29-0.189-6.044-0.558c-1.712-0.356-3.605-0.828-5.595-1.407l-3.128-0.864v-10.914h8.458
				l1.776,5.636c0.115,0.095,0.438,0.292,1.109,0.536c0.873,0.31,1.731,0.459,2.629,0.459c1.287,0,2.238-0.242,2.829-0.722
				c0.519-0.421,0.735-0.913,0.735-1.585c0-0.483-0.112-1.117-1.039-1.759c-1.04-0.739-2.837-1.667-5.336-2.772l-2.33-1.051
				c-2.865-1.285-5.059-2.898-6.529-4.793c-1.525-1.965-2.303-4.469-2.303-7.441c0-2.216,0.65-4.235,1.948-5.996
				c1.257-1.717,3.072-3.078,5.404-4.046c2.247-0.931,4.905-1.407,7.896-1.407c2.027,0,3.817,0.132,5.315,0.392
				c1.488,0.256,2.979,0.575,4.444,0.947c1.192,0.353,1.722,0.429,1.937,0.444l1.423,0.112v11.356h-8.069l-1.854-5.53
				c-0.075-0.044-0.264-0.168-0.645-0.317c-0.604-0.241-1.277-0.355-2.065-0.355c-1.192,0-2.113,0.237-2.733,0.701
				c-0.5,0.384-0.716,0.829-0.716,1.486c0,0.819,0.281,1.386,0.897,1.849c0.909,0.686,2.457,1.53,4.59,2.513l1.244,0.533
				c3.42,1.442,6.159,3.048,8.145,4.768c2.219,1.925,3.338,4.564,3.338,7.846c0,3.511-1.404,6.43-4.17,8.676
				C581.239,218.278,577.348,219.377,572.339,219.377z"/>
		</g>
		<g>
			<polygon points="603.812,218.703 603.812,211.731 608.746,211.056 608.746,177.977 603.745,177.116 603.745,169.943 
				627.365,169.943 627.365,177.123 622.254,177.98 622.254,211.108 627.365,211.784 627.365,218.703 			"/>
			<path d="M652.324,218.703v-6.913l2.98-0.551v-15.475c0-1.837-0.123-3.25-0.355-4.203c-0.177-0.724-0.437-1.223-0.794-1.489
				c-0.368-0.279-1.017-0.428-1.878-0.428c-1.36,0-2.974,0.635-4.788,1.888v19.681l3.354,0.553v6.936h-19.969v-6.935l3.352-0.555
				V190.59l-3.592-1.104v-7.328l12.542-1.525h0.816l2.582,2.099v1.238c0.98-0.618,2.045-1.176,3.21-1.677
				c2.387-1.02,4.902-1.537,7.493-1.537c2.721,0,4.928,0.525,6.569,1.555c1.71,1.076,2.955,2.774,3.702,5.044
				c0.675,2.083,1.029,4.893,1.029,8.354v15.478l3.398,0.488v7.029H652.324z"/>
			<path d="M689.451,219.377c-5.773,0-10.182-1.791-13.122-5.318c-2.87-3.442-4.317-8.066-4.317-13.744
				c0-3.893,0.797-7.366,2.369-10.32c1.607-3,3.877-5.35,6.767-6.98c2.854-1.621,6.187-2.445,9.885-2.445
				c1.783,0,3.358,0.123,4.688,0.366c1.291,0.231,2.633,0.564,3.994,0.993c1.541,0.432,1.91,0.495,1.959,0.503l1.377,0.204
				l-0.543,14.014h-8.865l-1.857-8.279c-0.443-0.186-0.917-0.26-1.479-0.26c-1.343,0-2.345,0.65-3.141,2.046
				c-0.634,1.118-1.399,3.523-1.399,8.621c0,3.871,0.609,6.832,1.803,8.794c1.088,1.781,2.42,2.611,4.202,2.611
				c2.696,0,5.211-0.71,7.469-2.105l1.484-0.924l2.795,6.149l-0.674,0.758c-1.124,1.282-2.86,2.461-5.322,3.602
				C695.099,218.8,692.375,219.377,689.451,219.377z"/>
			<path d="M712.183,219.193c-1.787,0-3.362-0.639-4.687-1.901c-1.345-1.28-2.034-2.88-2.034-4.757c0-2.096,0.771-3.844,2.288-5.192
				c1.471-1.3,3.286-1.956,5.402-1.956c2.014,0,3.678,0.679,4.96,2.016c1.254,1.322,1.888,2.906,1.888,4.699
				c0,2.193-0.758,3.953-2.242,5.241C716.335,218.57,714.457,219.193,712.183,219.193z"/>
		</g>
	</g>
	<g>
		<g>
			<g>
				<path fill-rule="evenodd" clip-rule="evenodd" d="M141.472,111.292c4.356,2.671,8.608,1.823,11.004,1.334
					c-0.479-1.661-2.14-5.506-2.437-7.208C148.03,107.153,143.854,108.747,141.472,111.292z"/>
			</g>
			<g>
				<path fill-rule="evenodd" clip-rule="evenodd" d="M7.449,75.525c0.78-3.889-5.45-0.713-4.102-5.174
					c0.357-2.737,5.226-0.933,6.151-3.099c1.049-3.481-3.19-1.621-5.13-2.077c-0.478-1.974,3.164-4.452-1.021-4.136
					c1.325-2.022,4.975,1.616,4.102-4.138c-1.747-0.385-1.94,0.806-2.053,2.063c-2.551-0.152-0.302-3.498,0-4.137
					c4.309-0.543,5.729,1.812,9.241,2.075c0.772-3.116,4.338-8.439-1.031-9.322c2.211,2.146,0.446,3.924-3.081,3.109
					C9.974,49.6,9.634,46.487,9.499,42.41c-4.803,0.179-3.406,2.66-8.213,1.033c-0.101-0.409-0.147-0.762-0.167-1.086
					c-1.013,2.986-1.436,6.162-0.857,9.369c1.19,0.863,2.75,1.363,5.134,1.032c-7.014,5.194-0.78,13.903-4.111,20.703
					C2.282,75.214,4.125,76.123,7.449,75.525z"/>
			</g>
			<g>
				<path fill-rule="evenodd" clip-rule="evenodd" d="M1.119,42.357c0.262-0.778,0.563-1.54,0.898-2.287
					C1.412,40.522,1.045,41.215,1.119,42.357z"/>
			</g>
			<g>
				<path fill-rule="evenodd" clip-rule="evenodd" d="M22.841,40.34c-0.507-5.549-3.555-4.54-3.072-9.317
					c-3.237-0.495-4.02,1.473-6.163,2.079c-1.014-3.704,0.89-7.188,5.132-9.321c3.165,1.376-1.913,4.603,1.031,6.206
					c4.256-2.442,6.368-8.345,13.34-5.176c-0.622,2.146-1.59,3.928-5.135,3.111c1.283,2.502,4.205,3.345,7.184,4.139
					c0.328-2.401-0.16-3.974-1.028-5.174c5.8,2.396,2.286-4.594,6.159-4.14c-1.002-3.812-3.728-5.898-6.159-8.279
					c0.321-1.405,2.571-0.861,4.113-1.04c-0.341-2.416-1.241-4.273-2.064-6.206c-5.232-1.361-4.385,1.078-7.182,0
					c2.114-2.701,8.471-1.134,8.677-5.753c3.292,0.14,3.026,0.855,2.614,4.718c4.521,1.552,7.068-1.061,10.266,1.035
					c-9.127-18.038-34.084,1.463-34.896,17.588c-1.445,0-9.749,6.576-13.642,15.259c1.182-0.89,3.212-0.922,4.399-1.798
					C11.305,44.252,13.762,40.955,22.841,40.34z"/>
			</g>
			<g>
				<path fill-rule="evenodd" clip-rule="evenodd" d="M53.636,15.5c14.902,6.702,13.967-19.334,1.025-10.35
					c1.281,1.812,4.207-2.648,7.18,0C58.145,11.919,53.192,5.024,53.636,15.5z"/>
			</g>
			<g>
				<path fill-rule="evenodd" clip-rule="evenodd" d="M164.142,127.609c-0.886-0.675-1.744-1.375-2.544-2.107
					c-0.515-0.081-1.009-0.213-1.445-0.389c-2.323,0.029-4.434-0.7-5.942-3.014c-0.678-2.4,0.963-2.458,2.12-3.006
					c-0.005-0.507,0.034-1.016,0.122-1.516c-1.143-0.514-2.137-1.346-2.864-2.428c-3.487-1.203-4.948,0.151-9.646,0.742
					c1.796,3.377,4.033,1.463,7.19,0c0.73,3.859-0.036,3.781-0.014,8.355c0.556,0.235,1.086,0.528,1.549,0.882
					c4.377-0.078,7.108,1.512,10.779,2.148c-2.861,0.729-5.503,1.523-8.188,1.943c0.093,0.5,0.123,1.002,0.098,1.531
					c0.119,0.213,0.23,0.427,0.327,0.651c0.365,0.567,0.728,1.135,1.078,1.712c1.208,0,2.422-0.083,3.651-0.226
					c0.326-0.386,0.707-0.717,1.11-0.999c0.067-0.077,0.116-0.161,0.187-0.232c0.757-0.761,1.534-1.484,2.336-2.171
					c-0.015-0.565,0.037-1.125,0.14-1.67C164.178,127.745,164.147,127.68,164.142,127.609z"/>
			</g>
			<g>
				<path fill-rule="evenodd" clip-rule="evenodd" d="M85.593,147.578c-1.796-5.027-5.474-7.601-9.382-1.676
					c-3.364-6.978,4.096-14.155,10.264-17.593c-0.475,3.246,2.58,2.917,4.104,4.137c0.932-2.162,3.026-3.152,6.153-3.101
					c-1.486,4.993,4.039,6.224,9.243,7.245C111.494,155.743,90.284,135.405,85.593,147.578c0.047,0.14,0.1,0.269,0.144,0.399
					c5.553,0.122,13.916,0.105,26.371,4.945c19.505,2.912,30.241,2.954,31.684,2.939c2.412-0.021,6.26-0.394,8.264-1.24
					c-0.049-0.077-4.809-8.139-5.66-11.133c-0.563-1.231-1.075-2.507-1.58-3.897c-0.395-1.061-1.113-1.88-1.693-2.827
					c-0.071-0.071-0.146-0.138-0.208-0.209c0,0.013,0,0.022,0.004,0.035c-0.576-0.667-1.201-1.251-1.875-1.775
					c-0.332-0.209-0.648-0.432-0.94-0.684c-11.01-7.416-31.158-0.992-23.866-21.346c-2.502-1.958-6.086-2.858-8.211,0
					c-1.263-14.628,13.719-9.299,20.526-12.422c-1.926-6.834-15.438,6.223-15.394-7.243c-0.739-1.676,4.838-1.676,4.106,0
					c2.839-0.443,0.047-3.253-2.059-2.067c0.682-8.678,7.041-5.009,14.372-8.284c-2.03-2.975-6.409,0.361-9.238,0
					c-3.759-10.078,12.433-5.919,16.422-7.244c-2.664-2.955-5.344-1.48-11.292-4.14c1.532-3.627,3.701-6.617,8.213-7.244
					c-1.285-2.497-4.207-3.342-7.185-4.144c1.681,3.625-2.195,9.819-7.179,7.254c5.045,3.722,1.325,13.438-6.161,11.384
					c4.26,7.847-5.21,21.385-5.21,21.385c-4.739,3.822-5.477,1.453-9.161,4.486c5.089,2.849,5.376,6.005,8.212,10.347
					c2.217-0.867,3.503-2.678,7.181-2.068c-2.147,5.648-3.441,9.617,0,13.455c-0.358,1.358-1.804,1.629-2.052,3.106
					c-5.346-0.122-9.419-1.541-10.261-6.212c-1.829,3.229-4.025-0.33-6.158,2.075c-1.784-1.93-4.354-6.48-7.179-4.142
					c0.616,3.163,4.908,2.633,6.155,5.173c-2.689,3.187-7.885,1.486-11.282,0c5.189-4.55-0.681-7.963,4.098-12.417
					c-2.236,0.19-3.263-0.846-3.077-3.11c0.707-2.581,2.731,1.924,5.126,1.034c2.337-5.529,1.357-7.611,9.237-7.24
					c-5.617-6.49-14.732,5.537-23.601,1.033c4.791,3.714,11.334,13.033,1.025,13.456c2.219,2.837,4.715-1.035,7.191,1.039
					c-0.52,7.756-8.849,7.64-9.244,15.52c-2.384-0.754-7.666-2.621-7.179,2.067c2.897,0.851,2.654-1.458,5.132-1.031
					c-4.095,13.766-26.618,4.776-21.556-13.457c0.813,1.842,8.511,5.763,9.238,1.035c-11.87-0.666-6.946-7.563-2.057-11.383
					c-0.586-2.161-2.54-2.953-2.048-6.21c8.581,3.135,10.513-2.894,19.498-1.035c-3.931-6.029-13.732,2.523-18.472-1.033
					c0.546-3.586,2.741-5.51,3.08-9.319c2.324,7.198,10.339,2.662,15.392,6.213c0.867-1.198,1.355-2.777,1.025-5.174
					c4.898,3.817,5.11-6.937,11.29-2.069c-1.22-4.196,5.494-6.299,2.049-12.421c0.934-2.831,3.6,1.833,5.134-1.035
					c-1.634-4.095,0.948-6.002-1.027-9.316c2.468-0.42,2.227,1.887,5.13,1.034c-2.813-5.437,1.578-12.886-7.131-18.236
					c2.266,1.505,0.047,8.134,2.001,9.958c-5.538,5.326-7.377-2.91-8.204-10.351c1.816,0.927,1.303,4.2,5.125,3.111
					c0.053-2.196,2.643-7.426-1.029-8.283c0.321-1.399,2.568-0.854,4.107-1.04c-2.016-7.764-3.268-13.25-11.285-13.448
					c-0.419-2.494,1.878-2.254,1.03-5.176h-5.133c0.147-2.931,1.655-4.411,3.074-8.278c-4.497-1.327-4.635-7.052-11.29-6.209
					c-2.542-0.755,4.747-7.076-1.693-5.551c-7.333,7.072,1.515,7.166,6.826,11.76c-2.854,0.232-3.886,1.273-5.133,5.174
					c-1.793-1.558,1.052-4.47-2.05-6.212c-4.135,4.069,0.5,8.262,2.05,12.422c-14.569-2.287-7.643,2.136-2.05,13.455
					c4.804-0.251,11.41-1.422,13.34,3.104c-0.239,2.667-1.764-1.423-4.101,0c0.574,1.493,1.598,2.528,3.074,3.107
					c-1.813,1.273-4.153,2.019-5.13,4.142c-2.505-0.115-0.216-3.428,1.025-3.109c-0.669-3.1-2.188,0.988-4.099,0
					c-0.431,3.538,0.308,5.897,4.099,5.176c-5.181,1.008-5.738,12.123-10.257,10.352c-2.81,0.937,1.818,3.625-1.029,5.175
					c-0.079-3.87-2.123-2.932-6.16-1.042c-0.25,10.889,4.594,12.617,13.348,10.35c-2.803,4.817,0.618,7.899,2.047,11.388
					c-2.702,0.313-3.371-1.436-3.077-4.14c-2.719,2.921-4.778,1.132-6.157,4.14c-2.041-5.416-5.522-3.232-6.16-10.348
					c-2.89,1.043,0.284,4.393,0,6.208c-3.504,0.772-1.303-4.203-5.128-3.106c2.335,4.102-6.288,4.583-5.128,1.033
					c-2.998,1.771,2.321,3.769,1.022,7.244c-1.355,2.618-3.37-2.709-6.159-2.068v5.175c-2.1-2.017-1.317-6.951-3.082-9.319
					c-9.747,0.928-6.272,1.962-11.291,6.212c-2.397-5.786-4.313-2.194-9.229-4.135c-1.27-3.349,3.32-0.795,2.047-4.141
					c-7.054,3.312-5.835,9.675-14.367,7.246c2.091-1.365,6.299-3.697,3.076-7.246c-1.919,4.534-1.434,1.137-6.157,1.033
					c1.754-2.712,2.981-5.958,8.209-5.175c0.496-3.25-1.457-4.043-2.053-6.208c2.814-0.346,7.708,3.315,12.315-1.035
					c-2.414-4.374-6.392-5.146-3.072-10.351c-4.589-1.32-7.384,6.587-2.063,6.21c-0.195,0.841-1.027,1.034-1.022,2.076
					c-1.364,0.68-4.584,0.56-7.186,0c0.459-0.923,0.9-1.852,2.054-2.076c-4.437-3.345-2.599,6.089-1.027,8.283
					c-0.781,1.548-4.863-3.482-4.108,3.101c-3.717-0.934-0.618-3.055-1.021-6.208c-13.98,12.682,12.919,31.502,25.661,21.734
					c1.951,0.443,1.857,2.961,5.123,2.068c-0.384-3.494,1.786-4.41,3.084-6.206c0.861,1.168-0.233,5.09-2.049,5.175
					c-0.197,3.999,4.763,2.781,4.101,7.242c-0.002,0.004-0.002,0.004-0.007,0.006c0.05,0.803-0.074,1.606-0.368,2.344
					c0.029,0.464,0.008,0.946-0.084,1.419c-0.156,0.818-0.437,1.584-0.689,2.366c0.038,0.149,0.045,0.3,0.069,0.446
					c3.662,5.887-0.949,17.541-5.079,18.256c-0.236,1.879,0.697,3.201,1.62,4.427c0.14,0.155,0.268,0.323,0.385,0.503
					c1.085,1.445,1.905,2.835,0.399,4.964c-0.188,0.436-0.441,0.842-0.745,1.195c-0.088,0.195-0.177,0.382-0.291,0.576
					c-1.278,2.232-2.821,4.26-4.443,6.231c18.42-0.595,33.542-4.459,54.39,1.769c-0.172-1.091-0.423-2.131-0.738-3.101
					 M73.135,88.976c3.981-5.398-2.017-13.266,0-19.66c0.282,0.943,3.822,3.479,4.107,1.035c-1.582-2.198-3.708-3.852-5.13-6.209
					c3.264,0.08-0.167-4.456,6.157-3.103c-6.877,8.572,13.959,17.797,6.154,24.842c-3.164,0.769-1.97-2.846-5.13-2.072
					C77.096,85.311,76.1,91.451,73.135,88.976z M43.372,147.973c-2.364-5.795-0.426-15.391,1.029-20.697
					C47.168,131.58,45.51,142.495,43.372,147.973z M46.451,115.891c-0.967-8.216,1.097-13.381,4.105-17.596
					C52.69,103.857,51.722,114.425,46.451,115.891z M140.867,145.902c-0.952-0.417-5.876,0.13-7.184,4.135
					c-0.216-1.24,0.992-5.731-2.054-7.246c-2.26,2.75-4.409,1.671-8.207,1.044c-0.848,2.924,1.445,2.679,1.023,5.172
					c-9.952,3.227-11.403,1.837-16.42,0c2.483-2.606,2.994-8.018-1.027-9.313c3.648,1.609,0.621-3.512,3.077-3.104
					c0.424,1.297,1.324,2.11,3.082,2.068c-0.026-2.436,1.766-3.052,1.021-6.212C126.4,128.746,145.09,132.223,140.867,145.902z"/>
			</g>
			<g>
				<path fill-rule="evenodd" clip-rule="evenodd" d="M135.737,55.868c1.333,2.603-3.033,7.388,3.079,7.245
					c0.374,4.171-5.936,1.594-5.132,6.204c2.414-0.327,3.851-1.631,7.184-1.03c-2.131,3.723-4.788,2.218-9.238,2.065
					c8.888,0.662,14.629,10.426,0,8.285c-1.201,1.922,7.293,4.457,9.238,1.032c0.284,1.47,1.795,5.733,6.16,3.101
					c-4.096-4.209-0.198-8.008,5.132-8.271c-6.613-1.062-6.07-0.654-12.315-2.079c0.152-1.913,3.477-0.63,4.099-2.068
					c-0.82-10.479-6.066-10.663-10.259-24.836c-3.362,0.366-2.696,8.834,0,9.312c-3.44,0.9-4.456,1.702-8.213,1.041
					C127.978,61.58,132.241,58.915,135.737,55.868z"/>
			</g>
			<g>
				<path fill-rule="evenodd" clip-rule="evenodd" d="M154.21,91.053c-0.257,0.089-0.48,0.206-0.72,0.312
					C153.863,91.329,154.121,91.229,154.21,91.053z"/>
			</g>
			<g>
				<path fill-rule="evenodd" clip-rule="evenodd" d="M151.132,84.844c-7.867-2.696-9.136,5.514-18.478,3.1
					c2.753,6.779,12.095-2.343,11.288,5.176c-2.922,0.131-3.807,2.24-7.18,4.146c5.04,0.39,7.099-1.457,11.288,3.096
					c-6.592,1.491-5.435,5.057-11.288,6.212c4.534,3.543,14.146-2.941,16.419-8.28c-1.703,0-3.42,0-5.131,0
					c1.104-3.03,2.62-5.638,5.441-6.93C150.748,91.631,141.838,88.146,151.132,84.844z"/>
			</g>
			<g>
				<path fill-rule="evenodd" clip-rule="evenodd" d="M19.769,56.901c-1.843-0.136-2.176,1.264-4.11,1.033
					c2.317,7.582,7.441,9.661,14.365,5.178c-0.534-0.84-1.072-1.685-1.026-3.114c-6.102-0.617-4.739,0.041-9.229,1.041
					C16.692,60.352,20.746,58.832,19.769,56.901z"/>
			</g>
			<g>
				<path fill-rule="evenodd" clip-rule="evenodd" d="M40.29,62.076c-3.205-0.479-3.282,2.208-3.074,5.176
					c-2.368-2.054-1.146,0.26-3.084,1.034c-1.39-0.321-0.852-2.591-1.021-4.145c-3.716,3.049-3.775,3.543-7.182,6.209
					c0.444,1.279,1.305,2.126,3.071,2.068C17.548,97.319,52.721,84.609,40.29,62.076z"/>
			</g>
		</g>
		<g>
			<linearGradient id="SVGID_1_" gradientUnits="userSpaceOnUse" x1="195.8354" y1="26.3276" x2="195.8354" y2="152.5884">
				<stop  offset="0" style="stop-color:hsl(80, 60%, 35%)"/>
				<stop  offset="1" style="stop-color:hsl(120, 60%, 30%)"/>
			</linearGradient>
			<path fill="url(#SVGID_1_)" d="M155.11,152.588v-12.325l3.959-0.044c5.738-0.063,7.438-1.392,7.81-1.8
				c0.397-0.421,1.69-2.27,1.69-8.274V52.714c0-6.494-1.353-8.022-1.628-8.26c-0.718-0.628-2.694-1.696-7.918-1.827l-3.913-0.092
				V30.256h69.495c0.035-0.109,0.054-0.23,0.076-0.363l0.415-3.566h11.466V68.36h-14.399v-4.044c0-7.922-2.038-13.516-6.063-16.624
				c-4.352-3.358-11.185-5.062-20.309-5.062h-3.167c-0.405,4.9-0.621,9.422-0.621,13.467c0,10.384,1.675,17.769,4.976,21.956
				c3.083,3.907,8.883,5.889,17.239,5.889h11.359v14.162l-32.6,0.715v31.327c0,6.941,2.773,9.86,9.581,10.076l3.885,0.127v12.24
				H155.11z"/>
			<path fill="url(#SVGID_1_)" d="M277.725,153.257c-12.922,0-24.059-4.552-33.097-13.541c-9.049-8.994-13.64-20.296-13.64-33.582
				c0-15.189,5.647-28.528,16.776-39.65c11.114-11.112,24.029-16.746,38.374-16.746c8.54,0,16.222,1.731,22.851,5.152
				c6.641,3.425,12.514,8.811,17.454,15.995c5.02,7.313,7.567,16.145,7.567,26.263c0,10.915-3.109,21.039-9.234,30.089
				c-6.054,8.943-13.253,15.587-21.401,19.759C295.264,151.153,286.631,153.257,277.725,153.257z M277.225,65.566
				c-7.201,0-13.232,2.553-17.917,7.592c-4.772,5.132-7.196,12.162-7.196,20.897c0,13.452,3.853,24.209,11.452,31.979
				c7.584,7.751,15.881,11.681,24.642,11.681c6.655,0,12.481-2.581,17.31-7.664c4.891-5.158,7.378-11.968,7.378-20.245
				c0-8.269-1.802-16.125-5.357-23.364c-3.448-7.013-8.154-12.289-13.975-15.673C287.623,67.315,282.133,65.566,277.225,65.566z"/>
			<path fill="url(#SVGID_1_)" d="M379.145,153.257v-10.918l1.979-0.104l-17.817-30.031c-10.418,15.034-12.681,22.485-12.681,26.12
				c0,1.397,0,3.735,6.379,3.827l3.667,0.06v11.046h-42.8v-10.801l3.414-0.287c5.3-0.445,11.925-6.109,19.158-16.381l16.865-23.692
				l-15.309-25.814c-5.784-9.722-11.326-15.065-16.021-15.453l-3.413-0.286V49.738h36.471v10.918l-1.69,0.085l13.363,22.392
				c8.245-12.297,9.183-17.127,9.183-18.686c0-1.492-0.508-2.127-0.935-2.513c-0.021-0.012-1.237-1.037-6.704-1.094l-3.68-0.041
				V49.738h43.092v10.591l-3.165,0.471c-5.707,0.849-12.202,6.16-19.298,15.792l-12.314,16.882l22.343,37.43
				c1.314,2.173,2.932,4.238,4.775,6.132c2.241,2.284,3.675,3.286,4.492,3.729c1.138,0.625,2.696,1.11,4.622,1.441l3.105,0.528
				v10.521H379.145z"/>
			<path fill="url(#SVGID_1_)" d="M436.564,153.257v-11.06l3.67-0.048c4.858-0.054,6.125-1.156,6.335-1.38
				c0.303-0.325,1.311-1.801,1.311-6.727V60.833h-1.417c-11.778,0-17.196,5.527-17.581,17.917l-0.112,3.633h-12.533V46.35h9.781
				l0.783,2.71c0.08,0.283,0.158,0.503,0.227,0.673h62.989V46.35h11.01v36.034h-12.679l-0.047-3.71
				c-0.117-12.334-5.955-17.84-18.912-17.84h-0.307v73.209c0,5.698,2.165,7.975,7.7,8.109l3.619,0.092v11.014H436.564z"/>
			<path fill="url(#SVGID_1_)" d="M547.727,153.257v-10.849h2.549l-7.392-21.702h-26.161c-2.526,7.653-3.816,13.429-3.816,17.168
				c0,1.429,0.376,2.444,1.231,3.282c0.856,0.859,1.982,1.251,3.548,1.251h7.461v10.849h-39.378v-10.652l3.458-0.189
				c3.654-0.195,7.706-5.497,11.397-14.918l30.231-77.76h9.326l26.154,76.268c1.767,5.194,3.686,9.448,5.74,12.657
				c2.063,3.246,3.957,3.695,5.204,3.75l3.499,0.169v10.676H547.727z M536.385,107.081l-5.848-17.167l-6.703,17.167H536.385z"/>
			<path fill="url(#SVGID_1_)" d="M585.335,153.257v-11.058l3.675-0.048c4.873-0.054,6.136-1.156,6.334-1.38
				c0.306-0.327,1.307-1.8,1.307-6.729V68.954c0-5.513-1.188-6.618-1.244-6.663c-0.566-0.5-2.154-1.346-6.435-1.453l-3.637-0.089
				V49.738h43.856v11.023l-3.643,0.077c-4.909,0.111-6.187,1.211-6.4,1.429c-0.219,0.228-1.278,1.611-1.278,6.687v65.088
				c0,5.662,2.155,7.934,7.708,8.111l3.613,0.113v10.99H585.335z"/>
			<path fill="url(#SVGID_1_)" d="M691.538,156.768l-0.071-3.531h-57.188v-11.062l3.682-0.04c3.721-0.044,5.7-0.753,6.313-1.403
				c0.22-0.236,1.325-1.663,1.325-6.71V68.926c0-5.377-1.143-6.537-1.275-6.652c-0.565-0.503-2.148-1.357-6.418-1.463l-3.627-0.08
				V49.71h43.846v11.023l-3.626,0.081c-4.959,0.11-6.243,1.186-6.452,1.401c-0.209,0.208-1.245,1.55-1.245,6.711v73.209h5.991
				c13.297,0,20.663-6.609,23.184-20.789l0.571-3.083h13.036l-7.954,38.505H691.538z"/>
		</g>
	</g>
</g>
</svg>
