<?xml version="1.0" encoding="utf-8"?>
<!-- Generator: Adobe Illustrator 16.0.0, SVG Export Plug-In . SVG Version: 6.00 Build 0)  -->
<!DOCTYPE svg PUBLIC "-//W3C//DTD SVG 1.1//EN" "http://www.w3.org/Graphics/SVG/1.1/DTD/svg11.dtd">
<svg version="1.1" id="Layer_1" xmlns="http://www.w3.org/2000/svg" xmlns:xlink="http://www.w3.org/1999/xlink" x="0px" y="0px"
	 width="128px" height="120px" viewBox="0 0 128 120" enable-background="new 0 0 128 120" xml:space="preserve">
<g>
	<path fill-rule="evenodd" clip-rule="evenodd" d="M85.642,61.959c-4.754,4.859-8.854,9.071-12.991,13.257
		c-0.407,0.412-1.153,1.081-1.42,0.948c-5.987-2.869-7.607,3.002-10.582,5.54c-6.043,5.15-12.494,9.175-20.612,9.203
		c-4.459,0.014-8.108,1.199-11.299,5.311c-4.901-4.848-9.416-9.434-14.074-13.875C9.944,77.84,5.082,73.496,0,68.817
		c3.511-4.66,4.588-8.953,5.244-13.684c1.804-13.067,8.883-22.474,21.732-26.69c12.69-4.16,23.985-1.53,33.479,7.974
		C68.61,44.588,76.672,52.853,85.642,61.959z M36.869,49.549c-5.672-0.115-10.489,4.207-10.742,9.642
		c-0.254,5.386,4.3,10.324,9.789,10.613c6.009,0.313,11.261-4.4,11.23-10.095C47.121,54.237,42.5,49.666,36.869,49.549z"/>
	<path fill-rule="evenodd" clip-rule="evenodd" d="M90.33,66.961c12.569,13.924,24.817,27.494,37.67,41.727
		c-3.832,3.836-7.291,7.293-11.3,11.313c-14.681-11.914-26.801-25.726-41.246-38.33C79.922,76.309,84.686,71.786,90.33,66.961z"/>
	<path fill-rule="evenodd" clip-rule="evenodd" d="M80.836,47.045c-5.399-4.327-9.759-7.282-10.442-13.813
		c-0.451-4.262-2.047-7.912-8.563-7.371c-3.69,0.307-7.737-3.701-13.015-6.506c-1.373-1.022,4.287-5.867-2.069-6.898
		c-1.776,2.155-3.789,4.589-6.209,7.532c-3.267,0.282-6.978,0.603-12.185,1.05c4.884-6.917,8.939-12.634,12.974-18.369
		c2.078-2.952,4.648-3.447,7.664-1.537c9.537,6.015,18.811,12.35,26.746,20.475c3.597,3.688,4.368,8.367,5,13.002
		C81.235,38.285,80.836,42.081,80.836,47.045z"/>
</g>
</svg>
