<?xml version="1.0" encoding="utf-8"?>
<!-- Generator: Adobe Illustrator 16.0.0, SVG Export Plug-In . SVG Version: 6.00 Build 0)  -->
<!DOCTYPE svg PUBLIC "-//W3C//DTD SVG 1.1//EN" "http://www.w3.org/Graphics/SVG/1.1/DTD/svg11.dtd">
<svg version="1.1" id="Layer_1" xmlns="http://www.w3.org/2000/svg" xmlns:xlink="http://www.w3.org/1999/xlink" x="0px" y="0px"
	 width="128px" height="127.999px" viewBox="0 0 128 127.999" enable-background="new 0 0 128 127.999" xml:space="preserve">
<path fill-rule="evenodd" clip-rule="evenodd" d="M79.65,42.955c-2.771,2.215-5.589,4.463-8.96,7.155
	c-1.443-1.357-2.78-2.619-3.966-3.736c0.358-1.064,0.392-1.849,0.794-2.272c2.083-2.157,4.04-4.512,6.432-6.274
	c4.528-3.341,8.665-3.438,12.733,0.477c11.318,10.886,22.85,21.643,33.243,33.375c7.928,8.956,8.359,20.882,7.981,32.255
	c-0.218,6.808,0.601,14.136-4.664,21.021c-14.496,4-29.64,4.415-44.586-0.92c-3.957-1.406-7.725-4.092-10.8-7
	c-9.488-8.941-18.699-18.181-27.838-27.469c-7.11-7.231-6.955-11.228,0.174-18.57c1.632-1.686,3.332-3.293,4.974-4.959
	c1.627-1.661,3.225-3.365,5.153-5.374c-2.489-3.524-4.059-7.751-9.865-5.527c-0.78,0.298-2.334-0.978-3.347-1.762
	C27.103,45.569,17.169,37.678,7.154,29.897C-3.196,21.852-2.169,7.951,9.285,1.928c6.896-3.63,14.912-2.09,19.736,4.232
	c8.083,10.602,15.914,21.396,23.852,32.105c0.199,0.27,0.591,0.51,0.601,0.78c0.576,10.684,10.229,14.796,15.905,21.772
	c1.661,2.051,3.41,4.021,4.974,5.855c-3.221,8.204-6.374,9.335-12.268,4.68c-2.063-1.623-3.947-3.462-5.938-5.229
	c-4.703,4.772-9.09,9.221-13.759,13.963c0.596,1.118,0.974,2.446,1.831,3.317c9.638,9.736,19.218,19.539,29.093,29.048
	c7.822,7.54,18.157,8.084,28.177,8.469c5.565,0.212,11.188-1.175,16.748-1.834c4.083-12.008,3.516-23.482,0.208-34.84
	c-0.983-3.394-2.819-6.928-5.26-9.456c-9.967-10.342-20.302-20.338-30.555-30.406C81.965,43.73,80.871,43.519,79.65,42.955z"/>
</svg>
