<?xml version="1.0" encoding="utf-8"?>
<!-- Generator: Adobe Illustrator 16.0.0, SVG Export Plug-In . SVG Version: 6.00 Build 0)  -->
<!DOCTYPE svg PUBLIC "-//W3C//DTD SVG 1.1//EN" "http://www.w3.org/Graphics/SVG/1.1/DTD/svg11.dtd">
<svg version="1.1" id="Layer_1" xmlns="http://www.w3.org/2000/svg" xmlns:xlink="http://www.w3.org/1999/xlink" x="0px" y="0px"
	 width="128px" height="120px" viewBox="0 0 128 120" enable-background="new 0 0 128 120" xml:space="preserve">
<g>
	<path fill-rule="evenodd" clip-rule="evenodd" d="M2.412,105.467c-0.743-1.765-1.403-3.355-2.412-5.77
		c21.747-8.34,36.706-22.426,40.943-45.152c-3.288-0.767-7.081-0.621-9.092-2.392c-2.169-1.913-2.658-5.61-3.943-8.68
		c-12.11-2.794-13.497-5.883-6.792-15.97c-0.892-3.677-5.576-6.253-3.483-11.092c2.034-4.705,6.687-4.48,10.433-5.953
		c2.933-12.322,7.276-12.584,16.927-6.826c11.249-5.655,12.865-5.027,17.505,6.798c13.546,3.96,12.021,8.263,6.52,16.883
		c5.849,8.2,6.49,13.451-7.003,16.223c-3.458,10.698-3.577,10.8-12.969,10.372c-3.958,15.449-10.502,29.787-24.126,40.031
		C18.19,99.002,11.167,103.422,2.412,105.467z M56.565,27.463c0.211-6.05-4.882-11.313-11.188-11.554
		c-5.977-0.231-11.894,5.1-12.044,10.854c-0.14,5.742,5.546,11.704,11.281,11.818C50.458,38.692,56.368,33.194,56.565,27.463z"/>
	<path fill-rule="evenodd" clip-rule="evenodd" d="M47.925,115.409c4.341-1.892,8.254-3.384,11.951-5.267
		c2.934-1.493,5.896-3.147,8.325-5.287c5.94-5.23,5.903-9.221,0.387-14.865c-5.95-6.085-6.213-7.833-2.727-15.448
		c0.715-1.563,1.168-3.301,1.414-5.003c1.832-12.627,7.736-23.399,15.903-33.152c0.571-0.684,1.12-1.398,1.797-1.987
		c3.323-2.901,6.167-3.164,8.917-0.887c2.792,2.318,3.17,5.088,0.799,8.594c-2.15,3.193-4.935,6.023-6.792,9.352
		c-2.719,4.881-5.129,9.966-7.158,15.154c-1.409,3.629-1.083,7.087,1.6,10.727c10.318,14.01,3.902,29.829-9.045,37.062
		c-4.865,2.717-10.683,3.96-16.216,5.33C53.73,120.558,50.441,119.582,47.925,115.409z M77.896,82.795
		c-1.634-1.221-2.849-2.774-3.665-2.592c-1.086,0.239-2.526,1.791-2.568,2.833c-0.036,0.88,1.662,2.55,2.621,2.57
		C75.284,85.633,76.333,84.099,77.896,82.795z"/>
	<path fill-rule="evenodd" clip-rule="evenodd" d="M91.968,93.417c-0.667-4.3-1.204-7.715-1.827-11.728
		c2.451-0.699,5.107-1.188,7.523-2.207c5.813-2.454,11.52-5.13,17.246-7.776c1.884-0.873,3.675-2.63,5.536-2.68
		c2.133-0.062,4.949,0.762,6.305,2.217c1.955,2.078,1.493,5.059-0.539,7.254c-1.19,1.291-2.788,2.253-4.278,3.249
		C113.065,87.639,103.35,91.479,91.968,93.417z"/>
	<path fill-rule="evenodd" clip-rule="evenodd" d="M58.437,84.492c3.67,4.208,6.774,7.765,9.861,11.308
		c-7.868,9.127-18.029,11.771-31.399,7.813C42.974,95.964,50.945,90.833,58.437,84.492z"/>
	<path fill-rule="evenodd" clip-rule="evenodd" d="M24.329,76.189c-13.321-3.187-16.152-8.945-10.745-21.795
		C27.347,57.538,31.294,65.548,24.329,76.189z"/>
</g>
</svg>
