<?xml version="1.0" encoding="utf-8"?>
<!-- Generator: Adobe Illustrator 16.0.0, SVG Export Plug-In . SVG Version: 6.00 Build 0)  -->
<!DOCTYPE svg PUBLIC "-//W3C//DTD SVG 1.1//EN" "http://www.w3.org/Graphics/SVG/1.1/DTD/svg11.dtd">
<svg version="1.1" id="Layer_1" xmlns="http://www.w3.org/2000/svg" xmlns:xlink="http://www.w3.org/1999/xlink" x="0px" y="0px"
	 width="128px" height="90px" viewBox="0 0 128 90" enable-background="new 0 0 128 90" xml:space="preserve">
<path fill-rule="evenodd" clip-rule="evenodd" d="M29.546,57.026c-0.84-2.077-1.421-4.303-2.546-6.21
	C18.978,37.16,10.822,23.59,2.779,9.948C1.625,7.991,0.538,5.881,0.036,3.702c-0.234-1.024,0.706-2.95,1.647-3.432
	C2.69-0.243,4.751,0.005,5.592,0.756c1.442,1.298,2.362,3.206,3.382,4.927c9.544,16.093,19.105,32.172,28.544,48.329
	c1.873,3.209,3.637,6.005,7.261,4.809c2.663-3.857,4.975-7.206,7.709-11.163c-2.132-0.71-4.318-1.434-6.943-2.305
	c0-6.044,0-12.253,0-18.444c10.434-2.811,27.323-1.143,48.058,4.818c0.159,1.99,0.41,4.191,0.494,6.397
	c0.088,2.285,0.017,4.574,0.017,7.07c-7.6,2.875-15.623-0.733-24.31,2.82c2.358,1.062,3.44,1.921,4.565,1.986
	c3.466,0.196,6.944,0,10.418,0.119c6.593,0.225,7.872,1.437,8.779,7.907c0.117,0.843,0.297,1.674,0.489,2.729
	c4.164,2.103,7.587-0.062,11.316-1.59c8.499-3.496,17.617,0.024,21.241,7.838c2.914,6.256,1.1,14.519-4.13,18.856
	c-5.902,4.894-14.393,5.841-19.945,0.706c-4.201-3.875-8.47-4.133-13.402-4.108c-14.184,0.066-28.373,0.07-42.562-0.009
	c-4.126-0.025-7.57,0.445-10.953,3.647c-5.117,4.848-11.488,4.885-17.733,1.587c-5.661-2.987-9.523-9.928-8.407-15.765
	c1.275-6.663,4.854-11.661,11.806-13.476c2.764-0.723,5.627-1.072,8.449-1.595c0.016,0.228-0.013,0.478,0.079,0.677
	c0.063,0.12,0.301,0.162,0.46,0.237C30.027,57.517,29.784,57.271,29.546,57.026z M25.654,65.718
	c-4.394,0.133-8.185,4.083-8.06,8.399c0.125,4.15,3.554,7.307,7.943,7.307c4.871,0.004,8.06-3.303,7.851-8.142
	C33.204,69.078,29.65,65.601,25.654,65.718z M111.855,65.767c-4.74,0.262-8.018,3.851-7.717,8.462
	c0.284,4.403,3.465,7.274,7.968,7.19c4.77-0.087,8.193-3.763,7.734-8.3C119.405,68.879,115.793,65.555,111.855,65.767z"/>
</svg>
