<?xml version="1.0" encoding="utf-8"?>
<!-- Generator: Adobe Illustrator 16.0.0, SVG Export Plug-In . SVG Version: 6.00 Build 0)  -->
<!DOCTYPE svg PUBLIC "-//W3C//DTD SVG 1.1//EN" "http://www.w3.org/Graphics/SVG/1.1/DTD/svg11.dtd">
<svg version="1.1" id="Layer_1" xmlns="http://www.w3.org/2000/svg" xmlns:xlink="http://www.w3.org/1999/xlink" x="0px" y="0px"
	 width="128px" height="90px" viewBox="0 0 128 90" enable-background="new 0 0 128 90" xml:space="preserve">
<g>
	<path fill-rule="evenodd" clip-rule="evenodd" d="M116.366,50.506c-11.375-4.315-21.112-2.953-29.319,6.694
		c-7.84-1.983-15.755-3.91-23.62-6.002c-7.924-2.108-15.798-4.375-24.578-6.822c-1.033-5.498-2.303-11.306-3.079-17.18
		c-0.171-1.281,1.288-3.936,2.177-4.02c4.304-0.41,4.997-3.684,6.648-6.718c7.976-14.689,27.7-20.648,43.838-13.329
		c4.135,1.879,7.914,3.178,12.8,2.995c6.861-0.255,13.309,2.785,17.543,8.895c2.336,3.368,3.39,7.729,8.186,9.025
		c0.712,0.193,1.443,3.834,0.774,5.182C124.236,36.36,120.293,43.272,116.366,50.506z M48.129,21.727
		c9.407,1.559,62.18,1.218,68.102-0.457c-2.61-7.334-8.725-10.284-15.379-9.865c-5.488,0.344-9.652-1.264-14.244-3.518
		C72.513,0.956,53.105,6.697,48.129,21.727z"/>
	<path fill-rule="evenodd" clip-rule="evenodd" d="M41.3,57.672c-11.47-3.203-22.339-6.235-33.196-9.269
		c-1.636-0.458-3.28-0.904-4.903-1.392C1.046,46.37-0.45,44.938,0.123,42.63c0.558-2.24,2.477-3.064,4.705-2.524
		c2.746,0.667,5.457,1.497,8.182,2.241c23.745,6.498,47.489,12.992,71.238,19.471c1.078,0.294,2.209,0.401,3.742,0.667
		c1.295-1.256,2.672-2.615,4.075-3.946c11.132-10.521,27.446-5.765,31.474,9.058c0.854,3.147,2.423,6.091,3.715,9.235
		c-0.935,3.405-3.62,3.071-6.12,2.464c-5.227-1.269-10.4-2.759-15.581-4.181c-8.722-2.392-17.44-4.796-26.552-7.307
		c-5.004,5.321-9.96,10.792-15.146,16.026c-1.967,1.985-4.242,3.983-6.759,5.025c-7.325,3.038-12.55-0.61-13.423-8.903
		c-0.39-3.701-0.894-7.391-1.3-11.087C42.009,65.462,41.718,62.05,41.3,57.672z M47.399,59.595
		c0.692,7.456,1.048,13.401,1.852,19.278c0.75,5.432,4.275,6.846,8.214,3.121c4.899-4.634,9.321-9.785,14.387-15.171
		c-2.369-1.123-3.799-2.074-5.357-2.49C60.541,62.757,54.549,61.35,47.399,59.595z M113.538,69.643
		c-4.278-9.036-7.669-9.818-15.645-4.392C103.541,66.838,108.537,68.239,113.538,69.643z"/>
	<path fill-rule="evenodd" clip-rule="evenodd" d="M118.985,83.366c-11.866,11.391-26.929,7.51-30.614-7.039
		c3.562-1.091,6.68,0.348,9.431,2.125c3.229,2.083,6.439,2.936,10.292,2.908C111.506,81.333,114.927,82.563,118.985,83.366z"/>
</g>
</svg>
