<?xml version="1.0" encoding="utf-8"?>
<!-- Generator: Adobe Illustrator 16.0.0, SVG Export Plug-In . SVG Version: 6.00 Build 0)  -->
<!DOCTYPE svg PUBLIC "-//W3C//DTD SVG 1.1//EN" "http://www.w3.org/Graphics/SVG/1.1/DTD/svg11.dtd">
<svg version="1.1" id="Layer_1" xmlns="http://www.w3.org/2000/svg" xmlns:xlink="http://www.w3.org/1999/xlink" x="0px" y="0px"
	 width="128px" height="100px" viewBox="0 0 128 100" enable-background="new 0 0 128 100" xml:space="preserve">
<g>
	<path fill-rule="evenodd" clip-rule="evenodd" d="M46.515,48.986c3.059,0,5.929,0,8.362,0c2.513-3.507,4.845-6.758,7.522-10.483
		c-2.265-0.593-4.329-1.13-6.824-1.779c0-5.528,0-11.078,0-17.227c15.376-2.691,30.026,1.135,44.966,4.98c0,4.29,0,8.143,0,12.312
		c-7.136,1.914-14.532-0.65-22.555,2.037c1.698,1.593,2.622,3.218,3.757,3.378c2.849,0.399,5.791,0.089,8.699,0.154
		c2.837,0.065,5.669,0.245,8.678,0.381c0.723,3.039,1.299,5.428,1.98,8.292c3.584,0.527,7.249,1.13,10.938,1.605
		c9.103,1.17,12.712,4.836,13.289,13.656c0.092,1.397,0.092,2.815-0.022,4.208c-0.037,0.494-0.521,0.96-1.349,2.382
		c-17.57,0-35.725,0-53.766,0c-1.366,16.764-5.337,22.564-16.554,24.979c-7.152,1.54-16.007-2.565-19.881-9.217
		c-5.182-8.89-3.371-16.033,6.656-26.226c0.622-6.749-2.097-12.533-5.455-18.226C29.042,34.153,23.359,23.98,17.531,13.888
		c-2.757-4.77-5.993-8.445-12.507-5.456C2.961,9.382,0.885,8.49,0.175,6.199c-0.736-2.371,0.971-3.54,2.883-4.524
		c6.497-3.34,13.981-1.631,18.381,4.659c2.765,3.955,5.026,8.253,7.417,12.45c4.777,8.394,9.468,16.843,14.254,25.238
		C44.082,45.721,45.33,47.268,46.515,48.986z M50.07,71.673c-4.072,0.188-7.346,3.881-7.098,8.012
		c0.248,4.135,3.993,7.415,8.068,7.076c3.972-0.327,7.648-4.314,7.346-7.958C58.076,75.069,53.911,71.498,50.07,71.673z"/>
	<path fill-rule="evenodd" clip-rule="evenodd" d="M103.403,81.851c7.505-5.405,7.505-5.405,21.197-4.653
		c0.769,1.796,1.677,3.934,3.4,7.991c-3.496-1.786-5.077-2.595-7.422-3.789c-0.723,2.048-2.529,4.458-1.912,5.867
		c2.277,5.185-1.794,7.486-4.282,12.233c-1.059-3.412-1.664-5.376-2.333-7.542c-6.274,1.009-7.963,10.606-16.444,7.383
		c1.11-1.818,2.169-3.558,3.497-5.738c-5.485-2.733-12.701,2.403-16.877-4.819c1.946-0.851,4.039-1.766,6.131-2.68
		c0.698-4.78-5.042-4.736-7.005-8.557C89.774,76.384,97.469,75.077,103.403,81.851z"/>
</g>
</svg>
